<svg width="200" height="50" viewBox="0 0 260 68" fill="none" xmlns="http://www.w3.org/2000/svg">
<path d="M102.929 24.81L101.56 25.9088L100.19 24.81V15.7897L101.56 14.6909L102.929 15.7897V24.81ZM100.19 28.2897L101.56 27.1909L102.929 28.2897V37.3099L101.56 38.4088L100.19 37.3099V28.2897ZM104.391 33.1864L112.987 26.224L114.025 27.0542V28.3753L104.391 36.1348V33.1864ZM116.224 24.81L114.854 25.9088L113.485 24.81V15.7934L114.893 14.6909L116.224 15.786V24.81Z" fill="#0092B5" stroke="#0092B5"/>
<path d="M127.102 14.57L128.348 15.57L127.102 16.57H122.508L121.262 15.57L122.508 14.57H127.102ZM128.112 17.5738L129.485 16.4722L130.851 17.5447V24.8301L129.482 25.929L128.112 24.8301V17.5738ZM130.851 28.3099V35.5616L129.482 36.6605L128.112 35.5616V28.3099L129.482 27.2111L130.851 28.3099ZM122.508 36.57H127.102L128.348 37.57L127.102 38.57H122.508L121.262 37.57L122.508 36.57ZM131.856 38.57L130.61 37.57L131.856 36.57H136.45L137.696 37.57L136.45 38.57H131.856ZM136.45 16.57H131.856L130.61 15.57L131.856 14.57H136.45L137.696 15.57L136.45 16.57Z" fill="#0092B5" stroke="#0092B5"/>
<path d="M149.537 14.57L150.783 15.57L149.537 16.57H142.387L141.141 15.57L142.387 14.57H149.537ZM150.547 17.5738L151.92 16.4722L153.286 17.5447V24.8301L151.928 25.9197L150.547 24.8116V17.5738ZM151.905 27.2018L153.286 28.3099V37.3301L151.917 38.429L150.547 37.3301V28.2914L151.905 27.2018ZM161.419 16.57H154.27L153.042 15.5724L154.291 14.57H161.441L162.684 15.5676L161.419 16.57Z" fill="#0092B5" stroke="#0092B5"/>
<path d="M165.833 24.5414V15.3559L168.572 17.5536V24.5414L167.202 25.6403L165.833 24.5414ZM165.833 28.5536L167.202 27.4548L168.572 28.5536V37.3331L167.202 38.4319L165.833 37.3331V28.5536ZM170.074 30.2082V28.948H171.891L182.282 37.2896V38.5498H180.465L170.074 30.2082ZM179.155 27.5498H169.582L168.331 26.5492L169.576 25.5498H179.155L180.402 26.5498L179.155 27.5498ZM182.888 24.5414L181.518 25.6403L180.149 24.5414V17.5536L181.518 16.4548L182.888 17.5536V24.5414ZM179.161 14.5498L180.411 15.5522L179.16 16.5683H169.583L167.083 14.5498H179.161Z" fill="#0092B5" stroke="#0092B5"/>
<path d="M190.389 28.2897V35.5414L189.02 36.6403L187.65 35.5414V28.2897L189.02 27.1909L190.389 28.2897ZM191.368 38.5498L190.152 37.5529L191.395 36.5498H200.973L202.219 37.5498L200.973 38.5498H191.368ZM204.717 35.5414L203.347 36.6403L201.978 35.5414V28.2897L203.347 27.1909L204.717 28.2897V35.5414ZM203.341 25.9143L201.978 24.8681V15.7897L203.347 14.6909L204.717 15.7897V24.81L203.341 25.9143ZM189.02 25.9088L187.65 24.81V15.7897L189.02 14.6909L190.389 15.7897V24.81L189.02 25.9088Z" fill="#0092B5" stroke="#0092B5"/>
<path d="M209.456 17.554L210.826 16.4548L212.195 17.5536V24.5401L210.81 25.6414L209.439 24.5419L209.456 17.554ZM213.206 27.5498L211.959 26.5498L213.206 25.5498H222.785L224.031 26.5498L222.785 27.5498H213.206ZM212.195 33.6554V35.54L210.811 36.6403L209.456 35.5428V33.6554L210.826 32.5566L212.195 33.6554ZM213.206 38.5498L211.959 37.5498L213.206 36.5498H222.785L224.031 37.5498L222.785 38.5498H213.206ZM226.529 35.5414L225.159 36.6403L223.79 35.5414V28.5536L225.159 27.4548L226.529 28.5536V35.5414ZM213.206 16.5683L211.956 15.566L213.207 14.5498H222.785L224.034 15.5522L222.783 16.5683H213.206ZM223.79 19.4396V17.5536L225.159 16.4548L226.529 17.5536V19.4396L225.159 20.5384L223.79 19.4396Z" fill="#0092B5" stroke="#0092B5"/>
<path d="M101.657 52.4842C101.862 52.7263 102.116 52.9296 102.402 53.0884C102.324 53.0726 102.247 53.0553 102.17 53.0366C101.708 52.9212 101.277 52.7442 100.895 52.5156C100.32 52.1642 99.8716 51.7138 99.5768 51.2104C99.0375 50.2299 98.984 49.1336 99.4199 48.128C99.6116 47.7078 99.9045 47.3133 100.289 46.9684L100.289 46.9685L100.295 46.9636C100.695 46.594 101.203 46.2961 101.784 46.0993C101.839 46.0821 101.895 46.0656 101.95 46.0498C101.823 46.1608 101.708 46.2842 101.608 46.419C101.094 47.1117 100.892 48.1546 100.892 49.4295C100.892 50.701 101.104 51.7927 101.648 52.473L101.652 52.4787L101.657 52.4842ZM107.371 47.6271C107.155 47.2009 106.872 46.8011 106.532 46.4375L106.682 46.3263L107.266 45.8926L107.371 47.6271Z" fill="#0092B5" stroke="#0092B5"/>
<path d="M110.596 48.6573L111.637 48.6101V49.6193L112.202 49.7494C111.988 50.2578 111.888 50.7985 111.913 51.3441V52.4848C111.897 52.6659 111.937 52.8399 112.02 52.9908L110.657 52.999C110.733 52.8536 110.77 52.6876 110.755 52.5148V49.2427C110.77 49.0994 110.747 48.9567 110.691 48.8258C110.666 48.7653 110.633 48.709 110.596 48.6573ZM114.223 49.2898C114.223 49.2705 114.226 49.2491 114.236 49.2255C114.249 49.2003 114.27 49.171 114.303 49.1413L114.026 48.6347C114.145 48.6118 114.269 48.6001 114.396 48.6007L114.406 48.6008L114.416 48.6005C114.711 48.5901 114.988 48.6702 115.193 48.8081C115.27 48.863 115.322 48.9241 115.353 48.9817C115.384 49.0392 115.395 49.0947 115.393 49.1459L115.392 49.1713L115.394 49.1968C115.4 49.2916 115.364 49.4066 115.252 49.5154C115.143 49.6001 114.981 49.6608 114.795 49.6647C114.61 49.6685 114.443 49.6157 114.326 49.5347C114.242 49.4559 114.22 49.3779 114.223 49.3223L114.224 49.306L114.223 49.2898Z" fill="#0092B5" stroke="#0092B5"/>
<path d="M122.95 50.4387H121.732C121.804 50.3065 121.843 50.1551 121.836 49.996C121.866 49.5608 121.757 49.1331 121.529 48.7549C121.806 48.857 122.056 48.9944 122.269 49.159C122.515 49.3856 122.697 49.6421 122.812 49.9112C122.886 50.0837 122.932 50.2608 122.95 50.4387ZM117.729 49.2452C118.053 49.0153 118.431 48.8373 118.839 48.7198C118.832 48.7273 118.826 48.7348 118.82 48.7425L118.807 48.7586L118.796 48.7757C118.477 49.2511 118.306 49.7938 118.313 50.3519L118.807 50.3462V50.4387H118.795H118.295V50.9387V50.9919C118.244 51.6434 118.464 52.2771 118.897 52.7926L118.915 52.814L118.935 52.8333C119.061 52.9525 119.202 53.056 119.354 53.1427C118.752 53.0479 118.192 52.8309 117.73 52.5136C117.44 52.2972 117.22 52.04 117.077 51.7644C116.934 51.4876 116.87 51.1955 116.883 50.9063L116.884 50.8836L116.883 50.861C116.87 50.5707 116.934 50.2776 117.077 49.9997C117.22 49.7225 117.439 49.4637 117.729 49.2452Z" fill="#0092B5" stroke="#0092B5"/>
<path d="M132.077 53.0586L131.984 52.9868L132.077 53.0586ZM132.077 53.0586L132.136 53.1041L132.077 53.0586ZM130.977 52.9918C131.047 53.0493 131.124 53.0957 131.204 53.1313C131.034 53.1784 130.851 53.2019 130.664 53.1981L130.653 53.1978L130.642 53.1981C130.412 53.2035 130.194 53.146 130.026 53.0459L130.026 53.0459L130.02 53.0424C129.957 53.006 129.911 52.9643 129.88 52.9242C129.85 52.8846 129.835 52.8475 129.829 52.8161L129.687 52.084L129.405 52.2691C129.516 52.0072 129.568 51.7239 129.549 51.4337L129.532 50.8003L129.53 50.7305L129.538 50.7299V50.2628V49.6883C129.577 49.2953 129.454 48.9172 129.215 48.6099C129.281 48.6211 129.347 48.6333 129.412 48.6464L129.412 48.6465L129.415 48.6471C129.748 48.7117 130.055 48.8299 130.318 48.9905L130.318 48.9905L130.324 48.9944C130.447 49.0665 130.533 49.1541 130.587 49.242C130.656 49.4266 130.684 49.6163 130.674 49.8042L130.673 49.8188L130.673 49.8334L130.678 52.2049C130.659 52.4661 130.744 52.715 130.901 52.9141L130.934 52.9571L130.977 52.9918ZM125.756 51.4884C126.04 51.3784 126.331 51.28 126.628 51.1935C126.571 51.2589 126.52 51.3289 126.476 51.4035C126.342 51.6278 126.272 51.8826 126.281 52.1448C126.267 52.4989 126.422 52.8229 126.672 53.0554L126.682 53.0644L126.692 53.0729C126.744 53.1163 126.8 53.1552 126.858 53.1897C126.762 53.1953 126.665 53.198 126.568 53.198L126.556 53.198L126.543 53.1986C126.088 53.2215 125.645 53.1204 125.285 52.9218C125.171 52.8469 125.091 52.7588 125.041 52.6711L124.605 52.9158L125.041 52.6711C124.991 52.5818 124.972 52.4923 124.978 52.4075L124.979 52.396L124.979 52.3845C124.983 52.2193 125.044 52.0466 125.174 51.8865C125.305 51.7248 125.501 51.5832 125.75 51.4907L125.75 51.4907L125.756 51.4884ZM125.846 48.8666C125.99 48.8098 126.137 48.7595 126.287 48.7161C126.256 48.7903 126.235 48.8754 126.235 48.9711V49.1021L126.3 49.2163C126.371 49.3427 126.462 49.4559 126.568 49.5538C126.581 49.568 126.587 49.5793 126.59 49.5859C126.593 49.5927 126.593 49.5961 126.593 49.5971L126.593 49.6111L126.594 49.6241C126.593 49.625 126.592 49.6279 126.589 49.6327L127.018 49.8901L126.589 49.6327C126.583 49.6431 126.567 49.6628 126.534 49.6832C126.388 49.7655 126.2 49.8118 126.003 49.8048L125.987 49.8042L125.972 49.8046C125.765 49.8102 125.575 49.7534 125.438 49.6611C125.391 49.6278 125.363 49.5934 125.348 49.5658L124.977 49.7669L125.348 49.5658C125.333 49.5388 125.33 49.5164 125.331 49.4985L125.331 49.4849L125.331 49.4714C125.33 49.3685 125.365 49.2567 125.449 49.1483C125.534 49.0383 125.667 48.9364 125.844 48.8674L125.844 48.8675L125.846 48.8666Z" fill="#0092B5" stroke="#0092B5"/>
<path d="M135.865 53.1903C135.869 53.192 135.873 53.1936 135.877 53.1952C135.749 53.2097 135.62 53.214 135.49 53.2078L135.458 53.2063L135.426 53.2088C135.213 53.2258 134.998 53.2063 134.798 53.1526C134.619 53.1048 134.458 53.0317 134.322 52.9407C134.089 52.6402 133.997 52.3032 134.035 51.9791L134.038 51.9498V51.9202V48.8878V48.3878H134.021C134.202 48.2791 134.368 48.1498 134.513 48.0014L134.523 47.991L134.533 47.98C134.893 47.5668 135.134 47.0855 135.231 46.5747V48.2304V48.3878V48.7304V48.8878V51.8094C135.202 52.1482 135.265 52.4854 135.412 52.7954L135.431 52.8374L135.459 52.875C135.565 53.0218 135.71 53.1265 135.865 53.1903L136.055 52.7279L135.865 53.1903Z" fill="#0092B5" stroke="#0092B5"/>
<path d="M145.269 50.4387H144.088C144.161 50.3054 144.2 50.1519 144.19 49.9907C144.218 49.5638 144.113 49.1442 143.893 48.7718C144.153 48.8719 144.387 49.0033 144.589 49.159C144.835 49.3856 145.017 49.6421 145.132 49.9112C145.205 50.0837 145.251 50.2608 145.269 50.4387ZM140.048 49.2452C140.385 49.0068 140.778 48.8242 141.203 48.707C141.194 48.7187 141.184 48.7305 141.174 48.7425L141.162 48.7578L141.151 48.7741C140.829 49.2488 140.657 49.7913 140.661 50.3499L141.155 50.3462V50.4387H140.661V50.9387V50.9918C140.609 51.6434 140.83 52.2771 141.263 52.7926L141.281 52.814L141.301 52.8333C141.431 52.9568 141.577 53.0634 141.736 53.152C141.112 53.0626 140.531 52.8415 140.055 52.5131C139.763 52.2975 139.541 52.0404 139.397 51.7645C139.253 51.4879 139.189 51.1959 139.202 50.9068L139.203 50.8839L139.202 50.861C139.189 50.5707 139.254 50.2776 139.397 49.9997C139.539 49.7225 139.759 49.4637 140.048 49.2452Z" fill="#0092B5" stroke="#0092B5"/>
<path d="M153.844 53.1917C153.848 53.1933 153.852 53.1949 153.856 53.1965C153.734 53.2096 153.61 53.2135 153.486 53.2078L153.455 53.2063L153.424 53.2088C153.21 53.2258 152.996 53.2063 152.795 53.1526C152.616 53.1047 152.455 53.0314 152.319 52.94C152.084 52.6409 151.992 52.3046 152.032 51.9821L152.036 51.9512V51.9202V48.8878V48.3878H151.997C152.179 48.2796 152.346 48.1509 152.492 48.0033L152.503 47.992L152.513 47.98C152.873 47.5668 153.114 47.0856 153.211 46.5748V48.2304V48.3878V48.7304V48.8878V51.8085C153.182 52.1453 153.242 52.4808 153.384 52.7906L153.405 52.8368L153.435 52.8779C153.542 53.0241 153.688 53.1284 153.844 53.1917Z" fill="#0092B5" stroke="#0092B5"/>
<path d="M158.027 45.8461L159.362 45.7925V49.073V50.3726L159.395 50.3367C159.37 50.5192 159.364 50.7048 159.38 50.8911V52.4617C159.357 52.5888 159.366 52.7195 159.408 52.843C159.425 52.8962 159.448 52.9461 159.475 52.9926L158.073 53.0002C158.149 52.8536 158.186 52.6864 158.17 52.5126V46.4165C158.185 46.2782 158.165 46.1398 158.114 46.0117C158.091 45.9525 158.061 45.8972 158.027 45.8461ZM161.924 48.6606C161.88 48.6462 161.835 48.6337 161.79 48.6232C161.936 48.6037 162.085 48.5946 162.235 48.5961L162.255 48.5963L162.276 48.5948C162.534 48.5761 162.794 48.6022 163.036 48.6701C163.266 48.7347 163.471 48.8345 163.64 48.9591C163.95 49.2821 164.083 49.663 164.05 50.028L164.048 50.0504V50.073V52.4941C164.032 52.6711 164.07 52.8412 164.149 52.9897H162.766C162.85 52.8357 162.892 52.6595 162.878 52.4765V50.2068C162.914 49.7841 162.781 49.3738 162.52 49.0359L162.495 49.0034L162.465 48.9755C162.31 48.8316 162.124 48.7261 161.924 48.6606Z" fill="#0092B5" stroke="#0092B5"/>
<path d="M172.742 50.4387H171.51C171.582 50.3046 171.619 50.1514 171.61 49.9912C171.638 49.5563 171.53 49.1288 171.305 48.7491C171.588 48.8518 171.844 48.9912 172.061 49.159C172.307 49.3856 172.489 49.642 172.604 49.9112C172.678 50.0837 172.723 50.2608 172.742 50.4387ZM167.532 49.2409C167.847 49.0176 168.212 48.8436 168.607 48.7268C168.603 48.732 168.599 48.7373 168.594 48.7425L168.581 48.7592L168.569 48.777C168.251 49.2541 168.085 49.7993 168.099 50.3587L168.587 50.3464V50.4387H168.093V50.9387V50.9918C168.041 51.6434 168.262 52.2771 168.695 52.7926L168.713 52.814L168.733 52.8333C168.859 52.9536 169.001 53.0578 169.155 53.145C168.553 53.0519 167.992 52.8357 167.53 52.5186C167.25 52.2939 167.035 52.0333 166.89 51.755C166.744 51.4733 166.671 51.1766 166.671 50.8808C166.671 50.5851 166.744 50.2884 166.89 50.0067C167.035 49.7275 167.251 49.4661 167.532 49.2409Z" fill="#0092B5" stroke="#0092B5"/>
<path d="M181.011 45.908C181.02 45.905 181.029 45.902 181.039 45.8991C181.022 45.933 181.007 45.9681 180.995 46.0043L180.991 46.0141L180.988 46.024C180.802 46.6329 180.728 47.2623 180.77 47.891V48.2258V48.4248V48.7258V48.9248V52.5021C180.758 52.6334 180.776 52.7645 180.822 52.8867L181.29 52.7088L180.822 52.8867C180.839 52.9291 180.858 52.9696 180.88 53.0082H179.492C179.569 52.8608 179.608 52.693 179.595 52.5184V48.9341V48.7258H179.606V48.2258V48.0035V47.9841L179.605 47.9647C179.561 47.4033 179.767 46.83 180.221 46.3499C180.434 46.1631 180.703 46.0102 181.011 45.908ZM182.535 46.4835L182.158 46.2487L182.535 46.4835C182.558 46.4459 182.598 46.4035 182.658 46.3653L182.67 46.3573L182.682 46.3487C182.725 46.3181 182.773 46.2794 182.817 46.2327C182.838 46.2097 182.869 46.174 182.897 46.1267C182.918 46.0898 182.964 46.0035 182.97 45.8843C183.105 45.9252 183.236 45.9765 183.359 46.0377C183.47 46.0953 183.549 46.1681 183.597 46.2399C183.645 46.3107 183.663 46.3797 183.661 46.4417L183.661 46.464L183.662 46.4862C183.664 46.5148 183.659 46.5466 183.643 46.5814C183.628 46.6132 183.602 46.6497 183.561 46.6859C183.425 46.7728 183.238 46.8243 183.038 46.8143L183.016 46.8133L182.995 46.814C182.831 46.8199 182.684 46.7736 182.583 46.7034C182.548 46.6756 182.527 46.6483 182.516 46.6271C182.506 46.6068 182.503 46.5905 182.503 46.5777C182.504 46.551 182.513 46.5192 182.535 46.4835Z" fill="#0092B5" stroke="#0092B5"/>
<path d="M189.739 53.1353V52.61V51.2005L189.688 51.263C189.696 51.1459 189.696 51.0279 189.687 50.9094V49.236C189.702 49.0976 189.683 48.9592 189.631 48.8311C189.608 48.7733 189.58 48.7191 189.546 48.669L190.844 48.6233L190.834 52.5088C190.819 52.6467 190.84 52.7844 190.89 52.9118C190.915 52.9734 190.946 53.0309 190.982 53.084L189.739 53.1353ZM187.201 53.0573C187.295 53.0889 187.391 53.1115 187.489 53.125C187.262 53.1766 187.024 53.2017 186.783 53.198L186.766 53.1978L186.749 53.1986C186.501 53.2114 186.252 53.1841 186.02 53.1194C185.796 53.0571 185.595 52.9622 185.426 52.8436C185.283 52.7143 185.18 52.5701 185.115 52.4221C185.048 52.2687 185.022 52.1108 185.035 51.9557L185.036 51.9357V51.9156V49.2441C185.051 49.1059 185.031 48.968 184.979 48.8406C184.955 48.7813 184.925 48.726 184.89 48.675L186.269 48.6241V51.5304C186.232 51.9482 186.364 52.3539 186.623 52.6861L186.645 52.7134L186.669 52.7376C186.82 52.8837 187.004 52.9907 187.201 53.0573Z" fill="#0092B5" stroke="#0092B5"/>
<path d="M196.158 53.1903C196.164 53.1925 196.169 53.1946 196.174 53.1967C196.051 53.21 195.926 53.2138 195.801 53.2078L195.769 53.2063L195.737 53.2088C195.524 53.2258 195.309 53.2063 195.109 53.1526C194.929 53.1047 194.768 53.0314 194.632 52.94C194.397 52.6409 194.305 52.3046 194.346 51.9821L194.349 51.9512V51.9202V48.8878V48.3878H194.314C194.496 48.2791 194.662 48.1498 194.807 48.0014L194.817 47.991L194.827 47.98C195.186 47.5668 195.427 47.0856 195.525 46.5748V48.2304V48.3878V48.7304V48.8878V51.8094C195.496 52.1482 195.559 52.4854 195.705 52.7954L195.725 52.8374L195.752 52.875C195.858 53.0218 196.003 53.1266 196.158 53.1903L196.349 52.7279L196.158 53.1903Z" fill="#0092B5" stroke="#0092B5"/>
<path d="M204.961 53.1234V52.5961V51.1866L204.867 51.3027C204.878 51.1726 204.879 51.0412 204.869 50.9094V49.236C204.884 49.0976 204.864 48.9592 204.813 48.8311C204.79 48.7733 204.761 48.7191 204.728 48.669L206.027 48.6233V52.5096C206.013 52.6472 206.033 52.7846 206.083 52.9118C206.107 52.9712 206.137 53.0267 206.171 53.0781L204.961 53.1234ZM202.383 53.0573C202.472 53.0874 202.564 53.1093 202.657 53.123C202.446 53.1666 202.226 53.1875 202.005 53.1841L201.988 53.1839L201.971 53.1848C201.723 53.1976 201.474 53.1702 201.242 53.1055C201.018 53.0432 200.817 52.9484 200.648 52.8297C200.505 52.7004 200.402 52.5562 200.337 52.4082C200.27 52.2549 200.244 52.0969 200.257 51.9418L200.258 51.9218V51.9017V49.2302C200.273 49.0921 200.252 48.9541 200.201 48.8267C200.179 48.7722 200.152 48.721 200.12 48.6734L201.457 48.6241V51.5324C201.423 51.9447 201.549 52.3454 201.799 52.6784L201.823 52.7101L201.851 52.7376C202.002 52.8837 202.186 52.9907 202.383 53.0573Z" fill="#0092B5" stroke="#0092B5"/>
<path d="M209.525 48.6666L210.585 48.6253V49.6378L211.145 49.7672C210.931 50.2758 210.831 50.8167 210.856 51.3626V52.5092C210.843 52.6851 210.883 52.8541 210.961 53.0024L209.593 53.0051C209.62 52.9566 209.642 52.9044 209.659 52.849C209.695 52.7271 209.7 52.5998 209.675 52.477V49.2466C209.692 49.102 209.669 48.9576 209.613 48.8253C209.589 48.7685 209.559 48.7155 209.525 48.6666ZM213.166 49.3083C213.166 49.289 213.169 49.2676 213.179 49.244C213.192 49.2188 213.213 49.1895 213.246 49.1598L212.968 48.6532C213.088 48.6303 213.212 48.6186 213.339 48.6193L213.349 48.6193L213.36 48.6189C213.654 48.6079 213.931 48.6881 214.135 48.8262C214.212 48.8813 214.264 48.9425 214.296 49.0003C214.327 49.0577 214.338 49.1132 214.336 49.1644L214.335 49.1887L214.337 49.2129C214.342 49.3126 214.305 49.4314 214.191 49.5436C214.144 49.5833 214.082 49.6202 214.004 49.6465C213.923 49.6739 213.832 49.6875 213.739 49.6844L213.723 49.6838L213.706 49.6843C213.62 49.6871 213.536 49.6753 213.46 49.6513C213.386 49.6279 213.326 49.5947 213.279 49.558C213.233 49.5182 213.204 49.4775 213.187 49.4417C213.17 49.4055 213.164 49.372 213.166 49.3415L213.166 49.3249L213.166 49.3083Z" fill="#0092B5" stroke="#0092B5"/>
<path d="M221.887 50.4387H220.656C220.727 50.3046 220.765 50.1513 220.756 49.9912C220.784 49.5564 220.675 49.1288 220.45 48.7491C220.734 48.8518 220.989 48.9912 221.207 49.159C221.452 49.3856 221.635 49.6421 221.749 49.9112C221.823 50.0837 221.869 50.2608 221.887 50.4387ZM216.678 49.2409C216.995 49.0162 217.363 48.8413 217.76 48.7245C217.755 48.7305 217.751 48.7364 217.746 48.7425L217.735 48.7557L217.726 48.7696C217.396 49.2449 217.222 49.7925 217.233 50.356L217.234 50.4387H217.233V50.9387V50.9918C217.181 51.6434 217.402 52.2771 217.834 52.7926L217.852 52.814L217.873 52.8333C217.998 52.953 218.14 53.0568 218.293 53.1437C217.693 53.05 217.135 52.8343 216.675 52.5186C216.395 52.2939 216.18 52.0333 216.036 51.755C215.889 51.4733 215.817 51.1765 215.817 50.8808C215.817 50.5851 215.889 50.2884 216.036 50.0067C216.181 49.7275 216.397 49.4661 216.678 49.2409Z" fill="#0092B5" stroke="#0092B5"/>
<path d="M229.823 48.6242V49.1702V50.5206L229.929 50.3974C229.913 50.5598 229.912 50.7242 229.927 50.889V52.4677C229.902 52.5905 229.907 52.7178 229.944 52.8397C229.961 52.8975 229.984 52.9516 230.013 53.0019L228.645 53.0048C228.723 52.8581 228.761 52.6899 228.746 52.5148V49.2427C228.761 49.0994 228.738 48.9567 228.682 48.8258C228.658 48.7701 228.629 48.7179 228.596 48.6696L229.823 48.6242ZM232.444 48.6602C232.409 48.6489 232.374 48.6387 232.338 48.6298C232.478 48.6116 232.62 48.6033 232.763 48.6053L232.784 48.6056L232.805 48.6041C233.058 48.5864 233.313 48.6111 233.551 48.6759C233.776 48.7372 233.978 48.832 234.148 48.951C234.452 49.2597 234.582 49.6251 234.551 49.974L234.549 49.9957V50.0174V52.4999C234.536 52.6745 234.575 52.8422 234.652 52.9896H233.283C233.366 52.8342 233.406 52.6571 233.391 52.474V50.2068C233.426 49.7901 233.301 49.3841 233.051 49.0449L233.023 49.0062L232.987 48.9736C232.832 48.8304 232.644 48.7255 232.444 48.6602L232.289 49.1357L232.444 48.6602Z" fill="#0092B5" stroke="#0092B5"/>
<path d="M237.205 50.8881L237.206 50.8658L237.205 50.8435C237.193 50.5538 237.258 50.2613 237.401 49.9842C237.544 49.7096 237.762 49.4533 238.049 49.2369C238.391 49.0126 238.78 48.8376 239.196 48.7188C239.131 48.787 239.071 48.8614 239.02 48.9416L239.007 48.9607L238.997 48.9809C238.684 49.581 238.541 50.2366 238.584 50.897L238.597 51.1029C238.598 51.6603 238.732 52.2103 238.987 52.7222L238.999 52.7464L239.014 52.7691C239.065 52.8493 239.125 52.9236 239.19 52.9918C238.772 52.874 238.381 52.7003 238.036 52.4775C237.752 52.2634 237.536 52.0098 237.396 51.7384C237.255 51.464 237.191 51.1746 237.205 50.8881ZM241.808 48.7188C242.222 48.8369 242.609 49.0107 242.95 49.2331C243.227 49.4554 243.441 49.7132 243.585 49.9886C243.731 50.2687 243.804 50.5637 243.804 50.8577C243.804 51.1517 243.731 51.4467 243.585 51.7268C243.441 52.0017 243.228 52.2593 242.951 52.4813C242.607 52.7023 242.219 52.8747 241.803 52.9918C241.868 52.9236 241.927 52.8493 241.979 52.7691L241.992 52.7489L242.003 52.7275C242.303 52.1433 242.441 51.5065 242.4 50.8654C242.443 50.2196 242.308 49.5774 242.01 48.9867L241.999 48.9635L241.985 48.9416C241.933 48.8614 241.874 48.787 241.808 48.7188Z" fill="#0092B5" stroke="#0092B5"/>
<path d="M248.802 51.9556L249.091 52.4986L248.752 53.1146H248.261L246.035 49.01C245.987 48.903 245.924 48.8048 245.85 48.7165H247.459C247.399 48.8281 247.371 48.9572 247.385 49.0903C247.393 49.1757 247.413 49.259 247.442 49.3388L247.447 49.3514L247.452 49.3637L247.556 49.6044L247.564 49.623L247.573 49.6408L248.802 51.9556ZM252.894 51.9164L253.184 52.4982L252.867 53.073H252.387L251.067 50.5193L250.699 49.806L250.65 49.7008L250.34 49.0328C250.295 48.9148 250.231 48.8073 250.153 48.7119H251.652C251.643 48.7283 251.636 48.7452 251.628 48.7626C251.581 48.8754 251.564 48.9996 251.581 49.1238C251.602 49.2989 251.66 49.4658 251.747 49.6171L252.894 51.9164ZM255.415 48.6748C255.269 48.8076 255.143 48.9582 255.041 49.1237C255.028 49.0131 254.992 48.9073 254.938 48.8115C254.91 48.7623 254.878 48.7167 254.843 48.6748H255.415Z" fill="#0092B5" stroke="#0092B5"/>
<path d="M258.984 48.0193C258.847 48.4232 258.747 48.8352 258.684 49.2519C258.608 48.8247 258.506 48.4011 258.378 47.9825L258.374 47.9716L258.371 47.9608C258.365 47.9461 258.36 47.9301 258.353 47.9127C258.319 47.8168 258.271 47.679 258.201 47.4915L258.195 47.4768L258.189 47.4624C258.035 47.1151 257.946 46.7543 257.925 46.3914L257.925 46.3825L257.924 46.3736C257.912 46.2423 257.954 46.0954 258.073 45.9582C258.235 45.8536 258.45 45.7886 258.684 45.7886C258.922 45.7886 259.141 45.8559 259.304 45.9637C259.43 46.0944 259.472 46.2355 259.461 46.3579L259.461 46.358C259.425 46.7761 259.318 47.1904 259.144 47.5903L259.139 47.6013L259.134 47.6126C259.094 47.7186 259.067 47.7926 259.045 47.8531C259.026 47.9073 259.01 47.9506 258.992 47.9963L258.988 48.0077L258.984 48.0193ZM258.715 53.1426L258.705 53.1424L258.696 53.1425C258.58 53.1437 258.467 53.1258 258.365 53.0915C258.263 53.0572 258.177 53.0085 258.11 52.953L258.11 52.9529L258.1 52.9444C258.028 52.8882 257.98 52.8272 257.95 52.769C257.92 52.7116 257.908 52.6556 257.909 52.6031L257.909 52.6031L257.909 52.5902C257.908 52.5405 257.92 52.487 257.949 52.4317C257.979 52.3757 258.027 52.3166 258.098 52.2625L258.099 52.2626L258.106 52.2563C258.175 52.2017 258.262 52.1544 258.365 52.1214C258.468 52.0884 258.58 52.0714 258.695 52.0729C258.938 52.0763 259.154 52.156 259.3 52.2733C259.443 52.3879 259.497 52.5172 259.5 52.6235C259.5 52.6755 259.488 52.7308 259.459 52.7876C259.429 52.8456 259.381 52.9065 259.31 52.9626C259.24 53.0174 259.152 53.0646 259.048 53.0971C258.944 53.1296 258.83 53.1456 258.715 53.1426Z" fill="#0092B5" stroke="#0092B5"/>
<path d="M50.344 13.511C50.3406 13.5142 50.3372 13.5174 50.3338 13.5207C50.1987 13.6514 50.064 13.833 49.9698 14.0694C49.8694 14.3213 49.827 14.6073 49.861 14.8991L50.7616 14.7943L49.861 14.8991C49.873 15.0021 49.8938 15.1002 49.9216 15.1927L47.215 13.4831C47.3596 13.4285 47.5239 13.3322 47.6817 13.1669C47.6823 13.1663 47.6829 13.1656 47.6836 13.1649C47.6842 13.1642 47.6849 13.1636 47.6855 13.1629C47.8237 13.0165 47.9565 12.8151 48.0392 12.5585C48.1237 12.2963 48.1446 12.0095 48.0929 11.7274C48.0787 11.6502 48.0597 11.5764 48.0367 11.5063C48.9614 12.0585 49.887 12.6417 50.8044 13.2338C50.7899 13.2385 50.7753 13.2435 50.7607 13.249C50.6411 13.2934 50.4972 13.3708 50.3542 13.5015C50.3508 13.5046 50.3474 13.5078 50.344 13.511ZM50.344 13.511C50.3474 13.5078 50.3508 13.5046 50.3542 13.5014L50.3439 13.5109L50.3338 13.5206C50.3372 13.5174 50.3406 13.5142 50.344 13.511ZM52.2044 14.24L51.5331 14.6923L52.2044 14.24ZM52.2044 14.24C52.2816 14.3546 52.3291 14.4805 52.3442 14.6102C52.3593 14.7399 52.3416 14.8707 52.2922 14.9948C52.2427 15.1188 52.1626 15.2336 52.0565 15.3322L52.2044 14.24ZM50.3624 15.481L51.108 14.9786L51.1114 14.9764L51.3029 14.8474L51.1114 14.9764L51.108 14.9786L50.3624 15.481C50.3624 15.481 50.3624 15.481 50.3624 15.481ZM46.7882 11.9667L46.6155 11.9984L46.7882 11.9667Z" fill="#0092B5" stroke="#0092B5" stroke-width="5"/>
<mask id="path-27-inside-1" fill="white">
<path d="M74.1449 33.7347C75.2528 32.369 76.2799 30.994 77.2204 29.6329C85.0161 18.2625 86.0143 8.53565 79.8228 3.64213C74.9527 -0.228243 66.3954 -0.62176 55.7377 2.54491C45.3916 5.61435 34.1857 11.6838 24.1743 19.6421C19.3911 23.4167 15.0527 27.5376 11.2142 31.9523C8.72872 28.8371 6.6372 25.5306 4.97077 22.0819C3.18198 18.2671 2.34529 14.8366 2.48378 11.8968C2.62227 8.95694 3.73593 6.64213 5.79015 5.0125C8.43871 2.90602 12.6222 2.03564 17.9077 2.48935C22.524 2.8875 27.8557 4.27639 33.4875 6.53102L29.154 7.15139C28.9958 7.1732 28.8445 7.21989 28.7089 7.28879C28.5732 7.3577 28.4559 7.44744 28.3637 7.55286C28.2714 7.65828 28.2061 7.77729 28.1714 7.90305C28.1367 8.02882 28.1333 8.15884 28.1615 8.28565C28.2142 8.51243 28.3642 8.71724 28.5856 8.86442C28.807 9.0116 29.0858 9.09186 29.3733 9.0912H29.5925L37.3997 7.97083C37.5802 7.94718 37.7517 7.89104 37.9013 7.80664C38.051 7.72224 38.1748 7.61176 38.2636 7.48348C38.3525 7.3552 38.4039 7.21246 38.4142 7.06595C38.4245 6.91944 38.3933 6.77296 38.323 6.6375L35.4378 1.08194C35.3105 0.841392 35.0699 0.650948 34.7683 0.552095C34.4668 0.453242 34.1288 0.453989 33.8279 0.554165C33.5348 0.647304 33.2988 0.828836 33.1704 1.05988C33.0421 1.29093 33.0316 1.55311 33.1413 1.79028L34.7166 4.82268C21.2949 -0.598612 9.95629 -1.0801 4.0533 3.60972C-0.822587 7.48472 -1.31306 14.281 2.66843 22.7532C4.52727 26.6047 6.893 30.286 9.72548 33.7347C6.89373 37.1805 4.52801 40.8587 2.66843 44.7069C-1.31306 53.1792 -0.822587 59.9847 4.0533 63.8505C6.74225 65.9893 10.5795 67.0681 15.2476 67.0681C18.9522 67.0681 23.1875 66.3921 27.8326 65.0403C27.9837 64.9968 28.1226 64.9298 28.2413 64.8432C28.36 64.7565 28.4561 64.6519 28.5242 64.5353C28.5924 64.4187 28.6311 64.2924 28.6381 64.1637C28.6452 64.0351 28.6205 63.9066 28.5654 63.7857C28.4512 63.5407 28.2209 63.3418 27.9247 63.2326C27.6286 63.1233 27.2905 63.1124 26.9844 63.2023C17.423 65.9801 9.89282 65.7301 5.79015 62.4662C3.73593 60.8366 2.62227 58.5171 2.48378 55.582C2.34529 52.6468 3.18198 49.2023 4.97077 45.3968C6.6365 41.9449 8.72804 38.6352 11.2142 35.5171C15.0531 39.9401 19.3935 44.0688 24.18 47.8505C34.1915 55.8088 45.3973 61.8782 55.7434 64.9477C60.5097 66.3644 64.8547 67.0681 68.6342 67.0681C73.3139 67.0681 77.1339 65.9893 79.8286 63.8505C86.0143 58.9338 85.0218 49.2069 77.2204 37.8366C76.2626 36.4724 75.2374 35.1051 74.1449 33.7347ZM78.034 62.494C75.9798 64.1282 73.0658 65.0125 69.3786 65.1236C65.6914 65.2347 61.3522 64.568 56.5513 63.1421C46.5283 60.1699 35.634 54.2579 25.8649 46.4755C20.9333 42.588 16.4882 38.3223 12.5933 33.7394C16.4898 29.1574 20.9348 24.8918 25.8649 21.0032C35.634 13.2394 46.5283 7.32731 56.5513 4.33657C61.3522 2.91528 65.6683 2.24861 69.3786 2.35972C73.0889 2.47083 75.9856 3.35509 78.034 4.98935C80.648 7.06343 81.7501 10.3366 81.2308 14.4523C80.7114 18.5681 78.5476 23.531 75.0046 28.6792C74.2603 29.7671 73.4582 30.8505 72.6042 31.9199C68.7554 27.5161 64.4114 23.4048 59.6268 19.6375C58.3055 18.5866 56.9379 17.5542 55.5876 16.5634C55.3456 16.3908 55.0291 16.301 54.7057 16.3131C54.3822 16.3252 54.0775 16.4383 53.8566 16.6282C53.7472 16.7233 53.6625 16.8348 53.6073 16.9564C53.5522 17.0779 53.5276 17.207 53.5351 17.3362C53.5427 17.4654 53.5821 17.5922 53.6511 17.709C53.7202 17.8259 53.8175 17.9307 53.9373 18.0171C55.2761 18.9847 56.6148 19.994 57.9073 21.0264C62.84 24.9131 67.2851 29.1789 71.1789 33.7625C67.2851 38.3461 62.84 42.6119 57.9073 46.4986C55.0019 48.8119 51.939 50.9943 48.7326 53.0357L49.6212 49.7949C49.6551 49.6687 49.6576 49.5385 49.6287 49.4115C49.5997 49.2846 49.5399 49.1634 49.4525 49.0551C49.3651 48.9467 49.252 48.8532 49.1195 48.78C48.9871 48.7067 48.8379 48.6552 48.6806 48.6282C48.3624 48.573 48.0299 48.6208 47.7554 48.7613C47.481 48.9017 47.2867 49.1235 47.215 49.3782L45.6166 55.2301C45.6139 55.2625 45.6139 55.295 45.6166 55.3273C45.6137 55.3597 45.6137 55.3922 45.6166 55.4245C45.6194 55.664 45.7322 55.8942 45.9334 56.0711C46.1347 56.2479 46.4102 56.3589 46.7072 56.3829H46.8341H54.7798C55.1027 56.3829 55.4124 56.28 55.6407 56.0968C55.8691 55.9136 55.9973 55.6651 55.9973 55.406C55.9973 55.1469 55.8691 54.8985 55.6407 54.7153C55.4124 54.5321 55.1027 54.4292 54.7798 54.4292H50.3944C53.6187 52.366 56.7007 50.1637 59.6268 47.8319C64.4112 44.0499 68.7496 39.9213 72.5869 35.4986C73.4409 36.5881 74.241 37.6684 74.9873 38.7394C78.5303 43.8921 80.6826 48.8134 81.2135 52.9662C81.7443 57.119 80.648 60.4199 78.034 62.494Z"/>
</mask>
<path d="M74.1449 33.7347C75.2528 32.369 76.2799 30.994 77.2204 29.6329C85.0161 18.2625 86.0143 8.53565 79.8228 3.64213C74.9527 -0.228243 66.3954 -0.62176 55.7377 2.54491C45.3916 5.61435 34.1857 11.6838 24.1743 19.6421C19.3911 23.4167 15.0527 27.5376 11.2142 31.9523C8.72872 28.8371 6.6372 25.5306 4.97077 22.0819C3.18198 18.2671 2.34529 14.8366 2.48378 11.8968C2.62227 8.95694 3.73593 6.64213 5.79015 5.0125C8.43871 2.90602 12.6222 2.03564 17.9077 2.48935C22.524 2.8875 27.8557 4.27639 33.4875 6.53102L29.154 7.15139C28.9958 7.1732 28.8445 7.21989 28.7089 7.28879C28.5732 7.3577 28.4559 7.44744 28.3637 7.55286C28.2714 7.65828 28.2061 7.77729 28.1714 7.90305C28.1367 8.02882 28.1333 8.15884 28.1615 8.28565C28.2142 8.51243 28.3642 8.71724 28.5856 8.86442C28.807 9.0116 29.0858 9.09186 29.3733 9.0912H29.5925L37.3997 7.97083C37.5802 7.94718 37.7517 7.89104 37.9013 7.80664C38.051 7.72224 38.1748 7.61176 38.2636 7.48348C38.3525 7.3552 38.4039 7.21246 38.4142 7.06595C38.4245 6.91944 38.3933 6.77296 38.323 6.6375L35.4378 1.08194C35.3105 0.841392 35.0699 0.650948 34.7683 0.552095C34.4668 0.453242 34.1288 0.453989 33.8279 0.554165C33.5348 0.647304 33.2988 0.828836 33.1704 1.05988C33.0421 1.29093 33.0316 1.55311 33.1413 1.79028L34.7166 4.82268C21.2949 -0.598612 9.95629 -1.0801 4.0533 3.60972C-0.822587 7.48472 -1.31306 14.281 2.66843 22.7532C4.52727 26.6047 6.893 30.286 9.72548 33.7347C6.89373 37.1805 4.52801 40.8587 2.66843 44.7069C-1.31306 53.1792 -0.822587 59.9847 4.0533 63.8505C6.74225 65.9893 10.5795 67.0681 15.2476 67.0681C18.9522 67.0681 23.1875 66.3921 27.8326 65.0403C27.9837 64.9968 28.1226 64.9298 28.2413 64.8432C28.36 64.7565 28.4561 64.6519 28.5242 64.5353C28.5924 64.4187 28.6311 64.2924 28.6381 64.1637C28.6452 64.0351 28.6205 63.9066 28.5654 63.7857C28.4512 63.5407 28.2209 63.3418 27.9247 63.2326C27.6286 63.1233 27.2905 63.1124 26.9844 63.2023C17.423 65.9801 9.89282 65.7301 5.79015 62.4662C3.73593 60.8366 2.62227 58.5171 2.48378 55.582C2.34529 52.6468 3.18198 49.2023 4.97077 45.3968C6.6365 41.9449 8.72804 38.6352 11.2142 35.5171C15.0531 39.9401 19.3935 44.0688 24.18 47.8505C34.1915 55.8088 45.3973 61.8782 55.7434 64.9477C60.5097 66.3644 64.8547 67.0681 68.6342 67.0681C73.3139 67.0681 77.1339 65.9893 79.8286 63.8505C86.0143 58.9338 85.0218 49.2069 77.2204 37.8366C76.2626 36.4724 75.2374 35.1051 74.1449 33.7347ZM78.034 62.494C75.9798 64.1282 73.0658 65.0125 69.3786 65.1236C65.6914 65.2347 61.3522 64.568 56.5513 63.1421C46.5283 60.1699 35.634 54.2579 25.8649 46.4755C20.9333 42.588 16.4882 38.3223 12.5933 33.7394C16.4898 29.1574 20.9348 24.8918 25.8649 21.0032C35.634 13.2394 46.5283 7.32731 56.5513 4.33657C61.3522 2.91528 65.6683 2.24861 69.3786 2.35972C73.0889 2.47083 75.9856 3.35509 78.034 4.98935C80.648 7.06343 81.7501 10.3366 81.2308 14.4523C80.7114 18.5681 78.5476 23.531 75.0046 28.6792C74.2603 29.7671 73.4582 30.8505 72.6042 31.9199C68.7554 27.5161 64.4114 23.4048 59.6268 19.6375C58.3055 18.5866 56.9379 17.5542 55.5876 16.5634C55.3456 16.3908 55.0291 16.301 54.7057 16.3131C54.3822 16.3252 54.0775 16.4383 53.8566 16.6282C53.7472 16.7233 53.6625 16.8348 53.6073 16.9564C53.5522 17.0779 53.5276 17.207 53.5351 17.3362C53.5427 17.4654 53.5821 17.5922 53.6511 17.709C53.7202 17.8259 53.8175 17.9307 53.9373 18.0171C55.2761 18.9847 56.6148 19.994 57.9073 21.0264C62.84 24.9131 67.2851 29.1789 71.1789 33.7625C67.2851 38.3461 62.84 42.6119 57.9073 46.4986C55.0019 48.8119 51.939 50.9943 48.7326 53.0357L49.6212 49.7949C49.6551 49.6687 49.6576 49.5385 49.6287 49.4115C49.5997 49.2846 49.5399 49.1634 49.4525 49.0551C49.3651 48.9467 49.252 48.8532 49.1195 48.78C48.9871 48.7067 48.8379 48.6552 48.6806 48.6282C48.3624 48.573 48.0299 48.6208 47.7554 48.7613C47.481 48.9017 47.2867 49.1235 47.215 49.3782L45.6166 55.2301C45.6139 55.2625 45.6139 55.295 45.6166 55.3273C45.6137 55.3597 45.6137 55.3922 45.6166 55.4245C45.6194 55.664 45.7322 55.8942 45.9334 56.0711C46.1347 56.2479 46.4102 56.3589 46.7072 56.3829H46.8341H54.7798C55.1027 56.3829 55.4124 56.28 55.6407 56.0968C55.8691 55.9136 55.9973 55.6651 55.9973 55.406C55.9973 55.1469 55.8691 54.8985 55.6407 54.7153C55.4124 54.5321 55.1027 54.4292 54.7798 54.4292H50.3944C53.6187 52.366 56.7007 50.1637 59.6268 47.8319C64.4112 44.0499 68.7496 39.9213 72.5869 35.4986C73.4409 36.5881 74.241 37.6684 74.9873 38.7394C78.5303 43.8921 80.6826 48.8134 81.2135 52.9662C81.7443 57.119 80.648 60.4199 78.034 62.494Z" fill="#0092B5" stroke="#0092B5" stroke-width="10" mask="url(#path-27-inside-1)"/>
<mask id="path-28-inside-2" fill="white">
<path d="M64.1337 36.2952C64.3042 36.1244 64.397 35.9121 64.397 35.6933C64.397 35.4746 64.3042 35.2623 64.1337 35.0915C62.2269 33.2447 60.0754 31.5697 57.7172 30.0961C52.472 26.7998 47.0191 25.0591 41.947 25.0591H41.6066C40.8936 25.0593 40.1817 25.1042 39.4773 25.1933C35.1323 25.6563 30.5796 27.3276 26.1769 30.0961C23.8187 31.5697 21.6672 33.2447 19.7603 35.0915C19.5899 35.2623 19.497 35.4746 19.497 35.6933C19.497 35.9121 19.5899 36.1244 19.7603 36.2952C21.6635 38.1399 23.809 39.8147 26.1595 41.2906C30.5969 44.0683 35.1843 45.7535 39.5639 46.2072C40.2344 46.2871 40.9114 46.3273 41.5893 46.3276H41.9297C47.0018 46.3276 52.4547 44.5869 57.6999 41.2906C60.0625 39.8163 62.2197 38.1414 64.1337 36.2952ZM41.7393 44.3832C41.1606 44.3773 40.5827 44.3464 40.0082 44.2906C37.8518 44.0306 35.842 43.2582 34.2379 42.073C32.2343 40.6059 30.9973 38.5846 30.7758 36.4156C30.7629 36.2864 30.7184 36.1605 30.6449 36.0451C30.5714 35.9297 30.4702 35.827 30.3473 35.743C30.2243 35.6589 30.0819 35.5951 29.9282 35.5552C29.7745 35.5154 29.6125 35.5001 29.4515 35.5105C29.2905 35.5208 29.1336 35.5565 28.9897 35.6155C28.8459 35.6745 28.7179 35.7556 28.6132 35.8543C28.5084 35.9529 28.4289 36.0672 28.3792 36.1905C28.3295 36.3138 28.3105 36.4438 28.3234 36.573C28.4887 38.1912 29.1188 39.7568 30.1641 41.147C27.2967 39.6051 24.685 37.7772 22.3916 35.7072C24.684 33.6382 27.2936 31.8104 30.1583 30.2674C29.6863 30.9091 29.2995 31.5887 29.0043 32.2952C28.9527 32.4171 28.9316 32.5459 28.9423 32.6744C28.953 32.8028 28.9952 32.9283 29.0665 33.0436C29.1379 33.1589 29.2369 33.2617 29.3579 33.3462C29.4789 33.4307 29.6196 33.4952 29.7717 33.5359C30.0802 33.6189 30.417 33.6014 30.7094 33.4871C31.0019 33.3728 31.2268 33.1709 31.3355 32.9248C31.9746 31.4181 33.1151 30.0804 34.6336 29.0563C36.1521 28.0322 37.9907 27.3607 39.9505 27.1146C40.5402 27.0551 41.1335 27.0211 41.7278 27.0128C44.5987 27.0116 47.3527 27.9254 49.3839 29.5533C51.4151 31.1813 52.557 33.3899 52.5586 35.6933C52.5601 37.9968 51.4211 40.2064 49.3921 41.836C47.3631 43.4657 44.6103 44.3819 41.7393 44.3832ZM52.6336 29.6795C55.9632 31.3248 58.9745 33.3525 61.5717 35.698C58.9745 38.0435 55.9632 40.0712 52.6336 41.7165C54.1687 39.9512 54.9917 37.8505 54.9917 35.698C54.9917 33.5455 54.1687 31.4448 52.6336 29.6795Z"/>
</mask>
<path d="M64.1337 36.2952C64.3042 36.1244 64.397 35.9121 64.397 35.6933C64.397 35.4746 64.3042 35.2623 64.1337 35.0915C62.2269 33.2447 60.0754 31.5697 57.7172 30.0961C52.472 26.7998 47.0191 25.0591 41.947 25.0591H41.6066C40.8936 25.0593 40.1817 25.1042 39.4773 25.1933C35.1323 25.6563 30.5796 27.3276 26.1769 30.0961C23.8187 31.5697 21.6672 33.2447 19.7603 35.0915C19.5899 35.2623 19.497 35.4746 19.497 35.6933C19.497 35.9121 19.5899 36.1244 19.7603 36.2952C21.6635 38.1399 23.809 39.8147 26.1595 41.2906C30.5969 44.0683 35.1843 45.7535 39.5639 46.2072C40.2344 46.2871 40.9114 46.3273 41.5893 46.3276H41.9297C47.0018 46.3276 52.4547 44.5869 57.6999 41.2906C60.0625 39.8163 62.2197 38.1414 64.1337 36.2952ZM41.7393 44.3832C41.1606 44.3773 40.5827 44.3464 40.0082 44.2906C37.8518 44.0306 35.842 43.2582 34.2379 42.073C32.2343 40.6059 30.9973 38.5846 30.7758 36.4156C30.7629 36.2864 30.7184 36.1605 30.6449 36.0451C30.5714 35.9297 30.4702 35.827 30.3473 35.743C30.2243 35.6589 30.0819 35.5951 29.9282 35.5552C29.7745 35.5154 29.6125 35.5001 29.4515 35.5105C29.2905 35.5208 29.1336 35.5565 28.9897 35.6155C28.8459 35.6745 28.7179 35.7556 28.6132 35.8543C28.5084 35.9529 28.4289 36.0672 28.3792 36.1905C28.3295 36.3138 28.3105 36.4438 28.3234 36.573C28.4887 38.1912 29.1188 39.7568 30.1641 41.147C27.2967 39.6051 24.685 37.7772 22.3916 35.7072C24.684 33.6382 27.2936 31.8104 30.1583 30.2674C29.6863 30.9091 29.2995 31.5887 29.0043 32.2952C28.9527 32.4171 28.9316 32.5459 28.9423 32.6744C28.953 32.8028 28.9952 32.9283 29.0665 33.0436C29.1379 33.1589 29.2369 33.2617 29.3579 33.3462C29.4789 33.4307 29.6196 33.4952 29.7717 33.5359C30.0802 33.6189 30.417 33.6014 30.7094 33.4871C31.0019 33.3728 31.2268 33.1709 31.3355 32.9248C31.9746 31.4181 33.1151 30.0804 34.6336 29.0563C36.1521 28.0322 37.9907 27.3607 39.9505 27.1146C40.5402 27.0551 41.1335 27.0211 41.7278 27.0128C44.5987 27.0116 47.3527 27.9254 49.3839 29.5533C51.4151 31.1813 52.557 33.3899 52.5586 35.6933C52.5601 37.9968 51.4211 40.2064 49.3921 41.836C47.3631 43.4657 44.6103 44.3819 41.7393 44.3832ZM52.6336 29.6795C55.9632 31.3248 58.9745 33.3525 61.5717 35.698C58.9745 38.0435 55.9632 40.0712 52.6336 41.7165C54.1687 39.9512 54.9917 37.8505 54.9917 35.698C54.9917 33.5455 54.1687 31.4448 52.6336 29.6795Z" fill="#0092B5"/>
<path d="M64.397 35.6933H59.397H64.397ZM64.1337 35.0915L67.673 31.5597L67.6429 31.5295L67.6122 31.4998L64.1337 35.0915ZM57.7172 30.0961L55.0567 34.3296L55.0675 34.3363L57.7172 30.0961ZM41.6066 25.0591V20.0591L41.6049 20.0591L41.6066 25.0591ZM39.4773 25.1933L40.0071 30.1652L40.0561 30.16L40.1051 30.1538L39.4773 25.1933ZM26.1769 30.0961L28.8265 34.3363L28.8385 34.3288L26.1769 30.0961ZM19.7603 35.0915L16.2818 31.4998L16.2512 31.5295L16.2211 31.5597L19.7603 35.0915ZM19.497 35.6933H24.497H19.497ZM19.7603 36.2952L16.2211 39.827L16.2505 39.8565L16.2804 39.8855L19.7603 36.2952ZM26.1595 41.2906L23.5008 45.5251L23.5065 45.5287L26.1595 41.2906ZM39.5639 46.2072L40.1551 41.2423L40.1171 41.2378L40.0791 41.2338L39.5639 46.2072ZM41.5893 46.3276L41.5871 51.3276H41.5893V46.3276ZM57.6999 41.2906L55.0529 37.0487L55.0461 37.0529L55.0394 37.0571L57.6999 41.2906ZM40.0082 44.2906L39.4097 49.2546L39.4672 49.2615L39.5247 49.2671L40.0082 44.2906ZM34.2379 42.073L37.2092 38.0516L37.2005 38.0451L37.1917 38.0387L34.2379 42.073ZM30.7758 36.4156L25.8004 36.9117L25.8016 36.9236L30.7758 36.4156ZM28.3234 36.573L23.3481 37.0691L23.3493 37.0812L28.3234 36.573ZM30.1641 41.147L27.796 45.5507L34.1604 38.1422L30.1641 41.147ZM22.3916 35.7072L19.0415 31.9955L14.929 35.7072L19.0415 39.419L22.3916 35.7072ZM30.1583 30.2674L34.1859 33.2303L27.7873 25.8654L30.1583 30.2674ZM29.0043 32.2952L33.6088 34.2442L33.6133 34.2336L33.6177 34.2229L29.0043 32.2952ZM29.0665 33.0436L33.3188 30.4134L29.0665 33.0436ZM29.7717 33.5359L31.0708 28.7076L31.0649 28.7061L29.7717 33.5359ZM31.3355 32.9248L35.9089 34.9457L35.9239 34.9117L35.9385 34.8774L31.3355 32.9248ZM39.9505 27.1146L39.4478 22.14L39.3876 22.1461L39.3275 22.1536L39.9505 27.1146ZM41.7278 27.0128L41.7256 22.0128L41.6919 22.0128L41.6582 22.0133L41.7278 27.0128ZM61.5717 35.698L64.9229 39.4087L69.0319 35.698L64.9229 31.9872L61.5717 35.698ZM52.6336 41.7165L48.8606 38.4356L54.8486 46.1991L52.6336 41.7165ZM67.673 39.827C68.6733 38.8246 69.397 37.3787 69.397 35.6933H59.397C59.397 34.4456 59.935 33.4242 60.5945 32.7634L67.673 39.827ZM69.397 35.6933C69.397 34.008 68.6733 32.5621 67.673 31.5597L60.5945 38.6233C59.935 37.9625 59.397 36.9411 59.397 35.6933H69.397ZM67.6122 31.4998C65.441 29.397 63.0092 27.5071 60.3668 25.8559L55.0675 34.3363C57.1415 35.6323 59.0128 37.0924 60.6552 38.6831L67.6122 31.4998ZM60.3777 25.8627C54.5117 22.1763 48.1489 20.0591 41.947 20.0591V30.0591C45.8893 30.0591 50.4323 31.4234 55.0567 34.3295L60.3777 25.8627ZM41.947 20.0591H41.6066V30.0591H41.947V20.0591ZM41.6049 20.0591C40.6835 20.0594 39.7625 20.1174 38.8496 20.2329L40.1051 30.1538C40.6008 30.091 41.1037 30.0593 41.6083 30.0591L41.6049 20.0591ZM38.9476 20.2215C33.7205 20.7784 28.4479 22.7616 23.5152 25.8634L28.8385 34.3288C32.7112 31.8936 36.5442 30.5342 40.0071 30.1652L38.9476 20.2215ZM23.5272 25.8559C20.8848 27.5071 18.4531 29.397 16.2818 31.4998L23.2388 38.6831C24.8813 37.0924 26.7525 35.6323 28.8265 34.3363L23.5272 25.8559ZM16.2211 31.5597C15.2208 32.562 14.497 34.008 14.497 35.6933H24.497C24.497 36.9411 23.959 37.9625 23.2996 38.6233L16.2211 31.5597ZM14.497 35.6933C14.497 37.3787 15.2208 38.8246 16.2211 39.827L23.2996 32.7634C23.959 33.4242 24.497 34.4455 24.497 35.6933H14.497ZM16.2804 39.8855C18.4456 41.9841 20.8687 43.8724 23.5008 45.5251L28.8183 37.0561C26.7493 35.757 24.8815 34.2957 23.2402 32.7049L16.2804 39.8855ZM23.5065 45.5287C28.4674 48.6342 33.7768 50.6345 39.0487 51.1806L40.0791 41.2338C36.5917 40.8726 32.7264 39.5025 28.8126 37.0525L23.5065 45.5287ZM38.9727 51.1722C39.8395 51.2754 40.7131 51.3272 41.5871 51.3276L41.5915 41.3276C41.1096 41.3274 40.6294 41.2988 40.1551 41.2423L38.9727 51.1722ZM41.5893 51.3276H41.9297V41.3276H41.5893V51.3276ZM41.9297 51.3276C48.1315 51.3276 54.4944 49.2104 60.3603 45.524L55.0394 37.0571C50.415 39.9633 45.872 41.3276 41.9297 41.3276V51.3276ZM60.3469 45.5324C62.992 43.8818 65.4278 41.9939 67.6049 39.894L60.6626 32.6964C59.0116 34.2889 57.133 35.7507 55.0529 37.0487L60.3469 45.5324ZM41.79 39.3834C41.3555 39.379 40.922 39.3558 40.4917 39.314L39.5247 49.2671C40.2435 49.337 40.9658 49.3756 41.6886 49.3829L41.79 39.3834ZM40.6067 39.3265C39.2308 39.1606 38.0562 38.6774 37.2092 38.0516L31.2666 46.0943C33.6278 47.8389 36.4728 48.9005 39.4097 49.2546L40.6067 39.3265ZM37.1917 38.0387C36.1548 37.2795 35.8069 36.4653 35.7499 35.9075L25.8016 36.9236C26.1877 40.7039 28.3137 43.9324 31.2842 46.1072L37.1917 38.0387ZM35.7511 35.9195C35.6563 34.9687 35.3329 34.0979 34.8618 33.3585L26.428 38.7316C26.1039 38.223 25.8695 37.6041 25.8004 36.9117L35.7511 35.9195ZM34.8618 33.3585C34.3942 32.6245 33.7995 32.0462 33.1686 31.615L27.526 39.8709C27.1409 39.6078 26.7486 39.2348 26.428 38.7316L34.8618 33.3585ZM33.1686 31.615C32.5382 31.1841 31.8597 30.8909 31.1843 30.7156L28.6721 40.3949C28.304 40.2994 27.9104 40.1337 27.526 39.8709L33.1686 31.615ZM31.1843 30.7156C30.508 30.5401 29.8136 30.4769 29.1312 30.5207L29.7718 40.5002C29.4114 40.5233 29.0409 40.4906 28.6721 40.3949L31.1843 30.7156ZM29.1312 30.5207C28.4491 30.5645 27.7577 30.7166 27.0925 30.9894L30.8869 40.2416C30.5094 40.3964 30.1318 40.4771 29.7718 40.5002L29.1312 30.5207ZM27.0925 30.9894C26.4281 31.2619 25.7701 31.6635 25.185 32.2145L32.0413 39.494C31.6658 39.8477 31.2637 40.087 30.8869 40.2416L27.0925 30.9894ZM25.185 32.2145C24.5979 32.7675 24.0837 33.4732 23.7419 34.3208L33.0165 38.0602C32.7742 38.6611 32.4189 39.1384 32.0413 39.494L25.185 32.2145ZM23.7419 34.3208C23.3975 35.175 23.253 36.1156 23.3481 37.0691L33.2987 36.0769C33.368 36.772 33.2614 37.4527 33.0165 38.0602L23.7419 34.3208ZM23.3493 37.0812C23.6136 39.6683 24.6147 42.0864 26.1678 44.1519L34.1604 38.1422C33.6228 37.4271 33.3639 36.7142 33.2975 36.0648L23.3493 37.0812ZM32.5322 36.7434C29.9997 35.3815 27.7211 33.7821 25.7416 31.9955L19.0415 39.419C21.6488 41.7723 24.5937 43.8286 27.796 45.5507L32.5322 36.7434ZM25.7416 39.419C27.721 37.6325 29.9986 36.0326 32.5294 34.6695L27.7873 25.8654C24.5887 27.5882 21.6469 29.644 19.0415 31.9955L25.7416 39.419ZM26.1308 27.3045C25.4325 28.2537 24.8455 29.2793 24.3909 30.3674L33.6177 34.2229C33.7534 33.8982 33.9401 33.5644 34.1859 33.2303L26.1308 27.3045ZM24.3998 30.3462C24.0414 31.1928 23.8799 32.1313 23.9595 33.0888L33.9251 32.2599C33.9834 32.9605 33.864 33.6413 33.6088 34.2442L24.3998 30.3462ZM23.9595 33.0888C24.039 34.0441 24.3503 34.9237 24.8142 35.6738L33.3188 30.4134C33.6401 30.9328 33.867 31.5615 33.9251 32.2599L23.9595 33.0888ZM24.8142 35.6738C25.2747 36.4182 25.866 37.0063 26.4955 37.4458L32.2202 29.2466C32.6078 29.5171 33.001 29.8995 33.3188 30.4134L24.8142 35.6738ZM26.4955 37.4458C27.1243 37.8849 27.8027 38.1849 28.4785 38.3658L31.0649 28.7061C31.4364 28.8055 31.8335 28.9766 32.2202 29.2466L26.4955 37.4458ZM28.4726 38.3642C29.7934 38.7196 31.224 38.6542 32.5294 38.1441L28.8895 28.8301C29.6099 28.5485 30.367 28.5183 31.0708 28.7077L28.4726 38.3642ZM32.5294 38.1441C33.8296 37.636 35.1772 36.6016 35.9089 34.9457L26.7621 30.9039C27.2763 29.7401 28.1743 29.1096 28.8895 28.8301L32.5294 38.1441ZM35.9385 34.8774C36.156 34.3646 36.614 33.7515 37.4293 33.2016L31.8379 24.9109C29.6163 26.4092 27.7932 28.4717 26.7325 30.9723L35.9385 34.8774ZM37.4293 33.2016C38.2473 32.6499 39.3295 32.2319 40.5735 32.0757L39.3275 22.1536C36.6519 22.4896 34.0568 23.4144 31.8379 24.9109L37.4293 33.2016ZM40.4532 32.0893C40.8985 32.0443 41.3473 32.0186 41.7973 32.0123L41.6582 22.0133C40.9197 22.0235 40.1819 22.0658 39.4478 22.14L40.4532 32.0893ZM41.7299 32.0128C43.5878 32.012 45.206 32.6126 46.2569 33.4549L52.5109 25.6518C49.4995 23.2382 45.6097 22.0111 41.7256 22.0128L41.7299 32.0128ZM46.2569 33.4549C47.2791 34.2741 47.5582 35.1192 47.5586 35.6967L57.5586 35.69C57.5559 31.6605 55.5511 28.0884 52.5109 25.6518L46.2569 33.4549ZM47.5586 35.6967C47.5589 36.2739 47.2812 37.1184 46.261 37.9378L52.5231 45.7343C55.5609 43.2944 57.5612 39.7197 57.5586 35.69L47.5586 35.6967ZM46.261 37.9378C45.2119 38.7804 43.5951 39.3824 41.7372 39.3832L41.7414 49.3832C45.6255 49.3815 49.5142 48.151 52.5231 45.7343L46.261 37.9378ZM50.4185 34.162C53.361 35.616 55.985 37.3899 58.2206 39.4087L64.9229 31.9872C61.964 29.3151 58.5654 27.0335 54.8486 25.1969L50.4185 34.162ZM58.2206 31.9872C55.985 34.0061 53.361 35.7799 50.4185 37.2339L54.8486 46.1991C58.5654 44.3624 61.964 42.0809 64.9229 39.4087L58.2206 31.9872ZM56.4066 44.9974C58.6587 42.4075 59.9917 39.1647 59.9917 35.698H49.9917C49.9917 36.5362 49.6786 37.4949 48.8606 38.4356L56.4066 44.9974ZM59.9917 35.698C59.9917 32.2312 58.6587 28.9885 56.4066 26.3986L48.8606 32.9604C49.6786 33.9011 49.9917 34.8597 49.9917 35.698H59.9917Z" fill="#0092B5" mask="url(#path-28-inside-2)"/>
<path d="M46.7645 34.1856L46.7663 34.1935L46.7645 34.1856ZM46.7645 34.1856L46.5233 33.1278L46.7645 34.1856ZM44.2607 31.5026L44.498 31.5578M44.2607 31.5026L44.498 31.5578M44.2607 31.5026L44.498 31.5578M44.2607 31.5026L44.498 31.5578M44.7225 33.4079C44.5127 33.3366 44.3339 33.2171 44.2086 33.0644L44.7225 33.4079Z" fill="#0092B5" stroke="#0092B5" stroke-width="5"/>
<path d="M20.4175 30.2501L20.6225 30.1487L20.4175 30.2501ZM20.4175 30.2501L20.3803 30.2685L20.4175 30.2501Z" fill="#0092B5" stroke="#0092B5" stroke-width="5"/>
<path d="M32.129 63.57L31.9762 63.1544L31.9701 63.5776M32.129 63.57L31.7529 62.5472M32.129 63.57C32.0765 63.5754 32.0234 63.578 31.9701 63.5776M32.129 63.57L31.2227 63.3583C31.4342 63.4965 31.6974 63.5737 31.9701 63.5776M31.9701 63.5776L31.9733 63.1465L31.8208 62.732L31.7536 62.549L31.7529 62.5472M31.7529 62.5472L31.7512 62.5497M31.7529 62.5472L31.7512 62.5497M31.7512 62.5497L31.6849 62.6512L31.7512 62.5497ZM36.7799 60.8962L36.8175 60.7241M36.7799 60.8962L36.8175 60.7241M36.7799 60.8962L36.8175 60.7241M36.7799 60.8962L36.8175 60.7241M31.9895 62.2137L31.99 62.1844L32.4837 63.485C32.3878 63.5223 32.2862 63.5486 32.182 63.5634L31.9776 63.0499L31.9808 62.8269L31.9857 62.4839L31.9895 62.2137Z" fill="#0092B5" stroke="#0092B5" stroke-width="5"/>
</svg>
