<svg xmlns="http://www.w3.org/2000/svg" style="display: none;">
	<symbol id="circle" viewBox="0 0 36 36">
		<path d="M86.1509 40.7026C86.1509 62.752 67.2059 80.675 43.7744 80.675C20.3429 80.675 1.39789 62.752 1.39789 40.7026C1.39789 18.6533 20.3429 0.730225 43.7744 0.730225C67.2059 0.730225 86.1509 18.6533 86.1509 40.7026Z" fill="#0092B5" stroke="#005477"/>
		<path d="M71.8587 40.7025C71.8587 55.3011 59.3125 67.1841 43.7744 67.1841C28.2363 67.1841 15.6901 55.3011 15.6901 40.7025C15.6901 26.104 28.2363 14.2209 43.7744 14.2209C59.3125 14.2209 71.8587 26.104 71.8587 40.7025Z" fill="#005477" stroke="#023950"/>
	</symbol>
	<symbol id="contract" viewBox="0 0 36 36">
		<path d="M30.7073 6.86251C30.6042 6.52149 30.3525 6.23075 30.0082 6.0545C29.6636 5.87737 29.2539 5.82946 28.8696 5.92116C28.4857 6.01309 28.1587 6.23661 27.9604 6.54273L27.7107 6.92907C27.4734 6.80788 27.1703 6.87921 27.0316 7.08907L25.763 9.01145L25.3284 8.78944C25.2133 8.73025 25.0763 8.71421 24.948 8.745C24.8195 8.776 24.7102 8.85101 24.6441 8.95378C24.5088 9.16602 24.5912 9.43572 24.829 9.55757L25.2635 9.77957L21.0183 16.3198L19.9695 18.8109L19.4701 19.641C19.1777 20.0932 19.2089 20.6554 19.55 21.0797L18.4263 22.305L18.1117 21.6037C17.9698 21.2911 17.6413 21.0769 17.2636 21.0506C16.8856 21.0242 16.5234 21.1902 16.3286 21.4792L16.1489 21.75L15.9791 19.974C15.9401 19.5538 15.5741 19.2161 15.1034 19.1653C14.6325 19.1148 14.1867 19.3656 14.0363 19.7654L12.8077 23.0422C12.7218 23.2739 12.8623 23.5237 13.1223 23.6017C13.171 23.6219 13.2235 23.634 13.2771 23.6371C13.4917 23.6377 13.6829 23.5161 13.7517 23.3353L14.9751 20.0585L15.15 21.861C15.1861 22.2456 15.497 22.5654 15.9199 22.6526C16.3427 22.7397 16.7802 22.5741 17.0029 22.243L17.1877 21.972L17.4974 22.6693C17.6289 22.963 17.9261 23.1727 18.278 23.2193C18.6299 23.2659 18.9831 23.1425 19.2055 22.8956L20.3692 21.5859C20.4979 21.6158 20.6306 21.6308 20.7638 21.6303C21.299 21.634 21.796 21.3834 22.0672 20.973L22.5666 20.2315L24.4695 18.1758L28.7596 11.5556L29.1941 11.7776C29.31 11.8366 29.3944 11.9339 29.4287 12.0486C29.4634 12.1624 29.4453 12.2838 29.379 12.386L27.3813 15.463C27.3059 15.564 27.2803 15.6881 27.3105 15.8064C27.3408 15.9246 27.4239 16.0267 27.541 16.0889C27.6561 16.1483 27.7931 16.1644 27.9214 16.1336C28.0499 16.1026 28.1592 16.0276 28.2253 15.9248L30.223 12.8477C30.4222 12.5414 30.4761 12.1772 30.3727 11.8355C30.2693 11.4943 30.0179 11.2035 29.6736 11.0273L29.239 10.8053L30.4876 8.88267C30.6239 8.67172 30.5437 8.40245 30.3079 8.27887L30.5576 7.89253C30.7622 7.58143 30.8163 7.20983 30.7073 6.86251ZM28.8244 6.98674C28.8905 6.88398 29.0003 6.80875 29.1293 6.77818C29.2576 6.74999 29.3931 6.76582 29.5087 6.82262C29.6246 6.88137 29.7089 6.97894 29.7436 7.09341C29.7753 7.20744 29.7575 7.32798 29.6936 7.43075L29.4439 7.81709L28.5747 7.37308L28.8244 6.98674ZM22.0172 19.3836L21.7675 19.2549L21.0283 18.8729L21.7375 17.1857L23.3107 17.9937L22.0172 19.3836ZM20.5189 20.6667C20.308 20.5359 20.2431 20.2844 20.3692 20.085L20.6189 19.6989L21.4878 20.1429L21.2381 20.5247C21.1681 20.6326 21.0505 20.7094 20.9137 20.7365C20.7769 20.7634 20.6338 20.7382 20.5189 20.6667ZM23.8801 17.2657L22.1521 16.3777L26.1475 10.2236L27.8756 11.1116L23.8801 17.2657ZM28.375 10.3435L26.647 9.45545L27.6459 7.9192L29.3739 8.80722L28.375 10.3435Z" />
		<path d="M8.67186 20.4453L6.90409 22.0127L5.84523 21.0714C5.65038 20.8992 5.33579 20.8992 5.14095 21.0714C5.04633 21.1548 4.99316 21.2682 4.99316 21.3866C4.99316 21.505 5.04633 21.6186 5.14095 21.7018L6.19981 22.6432C6.38709 22.8084 6.64022 22.901 6.90409 22.9007C7.16941 22.902 7.42474 22.8095 7.61324 22.6432L9.37614 21.0714C9.54587 20.8951 9.53441 20.6326 9.35005 20.4687C9.16544 20.3046 8.87012 20.2944 8.67186 20.4453Z" />
		<path d="M2.78906 21.6394C2.78906 23.724 4.68974 25.4135 7.03426 25.4135C9.37877 25.4135 11.2795 23.724 11.2795 21.6394C11.2795 21.3942 11.0558 21.1954 10.78 21.1954C10.5042 21.1954 10.2806 21.3942 10.2806 21.6394C10.2806 23.2334 8.82715 24.5255 7.03426 24.5255C5.24136 24.5255 3.78793 23.2334 3.78793 21.6394C3.78793 20.0455 5.24136 18.7534 7.03426 18.7534C7.73707 18.7516 8.42111 18.9543 8.982 19.3307C9.2027 19.4779 9.51582 19.438 9.68116 19.2418C9.84675 19.0456 9.80212 18.7675 9.58142 18.6203C8.29504 17.7626 6.57384 17.6247 5.13577 18.2638C3.69746 18.9032 2.78906 20.2101 2.78906 21.6394Z" />
		<path d="M18.7709 4.10115C19.0467 4.10115 19.2703 3.90256 19.2703 3.65714C19.2703 3.41194 19.0467 3.21313 18.7709 3.21313H5.78557C5.50976 3.21313 5.28613 3.41194 5.28613 3.65714V5.43318C5.28613 5.6786 5.50976 5.87719 5.78557 5.87719H18.7709C19.0467 5.87719 19.2703 5.6786 19.2703 5.43318C19.2703 5.18798 19.0467 4.98917 18.7709 4.98917H6.285V4.10115H18.7709Z" />
		<path d="M7.28337 6.76477C7.00756 6.76477 6.78394 6.96358 6.78394 7.20878C6.78394 7.4542 7.00756 7.65279 7.28337 7.65279H17.2721C17.5479 7.65279 17.7715 7.4542 17.7715 7.20878C17.7715 6.96358 17.5479 6.76477 17.2721 6.76477H7.28337Z" />
		<path d="M20.2692 9.87292H9.28166C9.00585 9.87292 8.78223 10.0717 8.78223 10.3169C8.78223 10.5624 9.00585 10.7609 9.28166 10.7609H20.2692C20.545 10.7609 20.7687 10.5624 20.7687 10.3169C20.7687 10.0717 20.545 9.87292 20.2692 9.87292Z" />
		<path d="M15.2747 12.981C15.2747 12.7358 15.051 12.537 14.7752 12.537H4.78654C4.51073 12.537 4.28711 12.7358 4.28711 12.981C4.28711 13.2264 4.51073 13.425 4.78654 13.425H14.7752C15.051 13.425 15.2747 13.2264 15.2747 12.981Z" />
		<path d="M20.2689 12.537H16.7729C16.4971 12.537 16.2734 12.7358 16.2734 12.981C16.2734 13.2264 16.4971 13.425 16.7729 13.425H20.2689C20.5447 13.425 20.7683 13.2264 20.7683 12.981C20.7683 12.7358 20.5447 12.537 20.2689 12.537Z" />
		<path d="M9.78089 15.6453C10.0567 15.6453 10.2803 15.4468 10.2803 15.2013C10.2803 14.9561 10.0567 14.7573 9.78089 14.7573H4.78654C4.51073 14.7573 4.28711 14.9561 4.28711 15.2013C4.28711 15.4468 4.51073 15.6453 4.78654 15.6453H9.78089Z" />
		<path d="M11.7792 15.6453H15.2753C15.5511 15.6453 15.7747 15.4468 15.7747 15.2013C15.7747 14.9561 15.5511 14.7573 15.2753 14.7573H11.7792C11.5034 14.7573 11.2798 14.9561 11.2798 15.2013C11.2798 15.4468 11.5034 15.6453 11.7792 15.6453Z" />
		<path d="M23.2658 20.9733C22.99 20.9733 22.7664 21.1721 22.7664 21.4173V25.8574C22.7664 26.1029 22.5428 26.3014 22.2669 26.3014H2.28956C2.01375 26.3014 1.79013 26.1029 1.79013 25.8574V1.88098C1.79013 1.63577 2.01375 1.43697 2.28956 1.43697H22.2669C22.5428 1.43697 22.7664 1.63577 22.7664 1.88098V10.2196C22.7664 10.4648 22.99 10.6636 23.2658 10.6636C23.5416 10.6636 23.7652 10.4648 23.7652 10.2196V1.88098C23.7652 1.14537 23.0944 0.54895 22.2669 0.54895H2.28956C1.46213 0.54895 0.79126 1.14537 0.79126 1.88098V25.8574C0.79126 26.5933 1.46213 27.1895 2.28956 27.1895H22.2669C23.0944 27.1895 23.7652 26.5933 23.7652 25.8574V21.4173C23.7652 21.1721 23.5416 20.9733 23.2658 20.9733Z" />
	</symbol>
	<symbol id="payment" viewBox="0 0 36 36">
		<path d="M23.3629 26.9489L30.5107 19.5469L30.2001 19.2252C29.903 18.9176 29.5543 18.6833 29.1746 18.5291L29.742 17.9416L29.4314 17.6199C28.8031 16.9692 27.9631 16.6686 27.1388 16.717C26.669 16.2638 26.0922 15.9959 25.4954 15.9134L25.5139 15.8943C24.5765 14.9235 22.9702 15.0073 21.9332 16.0812L20.5892 17.473C20.6165 17.2778 20.6289 17.0789 20.6238 16.8774L20.6126 16.4345H9.4516L5.03761 21.0055L4.32376 20.2662L0.539551 24.1851L8.29667 32.2181L12.0809 28.2993L11.3774 27.5708L11.978 26.9489H23.3629ZM26.0189 17.0131C25.7187 17.161 25.4372 17.3629 25.189 17.62L21.8578 21.0697H19.9367V21.9795H22.2216L25.8102 18.2633C26.5308 17.5171 27.6452 17.4209 28.4673 17.9751L28.1374 18.3168C28.1178 18.3164 28.0984 18.3153 28.0788 18.3153C27.2775 18.3153 26.5241 18.6385 25.9575 19.2253L22.6262 22.675H18.1431C17.2754 22.675 16.4597 22.325 15.8461 21.6897L14.6239 20.4241H17.288C17.345 20.4241 17.4017 20.4226 17.4582 20.4197H20.7154L23.5956 17.4371C24.25 16.7595 25.2289 16.6184 26.0189 17.0131ZM20.0933 19.0196L20.3091 19.0499L22.5547 16.7245C22.9498 16.3153 23.4597 16.1121 23.9355 16.1263C23.586 16.2775 23.2585 16.4996 22.9744 16.7938L20.3516 19.5099H19.549C19.5931 19.4678 19.6364 19.4244 19.6786 19.3795C19.7899 19.2611 19.8915 19.1358 19.9842 19.005C20.052 19.0139 20.0923 19.0195 20.0933 19.0196ZM8.29667 30.9316L1.78193 24.1851L4.32376 21.5529L4.41639 21.6488L4.41407 21.6512L10.7538 28.2165L10.7562 28.2141L10.8385 28.2993L8.29667 30.9316ZM10.7562 26.9276L5.65883 21.6489L9.81552 17.3444H19.7206C19.6461 17.8698 19.4151 18.356 19.0493 18.7449C18.6154 19.2062 18.0442 19.4745 17.4285 19.51H14.4321V19.5144H12.5032L15.2251 22.3331C16.0045 23.1403 17.0409 23.5848 18.1433 23.5848H22.9903L26.5789 19.8686C26.9795 19.4537 27.5123 19.2252 28.0789 19.2252C28.4962 19.2252 28.895 19.3491 29.2364 19.5801L22.999 26.0392H11.614L10.7562 26.9276Z" />
		<path d="M19.1718 21.0696H18.3799V21.9794H19.1718V21.0696Z" />
		<path d="M5.02022 23.2795C4.79064 23.0416 4.48526 22.9106 4.16049 22.9106C3.83572 22.9106 3.53034 23.0416 3.3007 23.2794C3.07106 23.5172 2.94458 23.8335 2.94458 24.1698C2.94458 24.5061 3.071 24.8223 3.30064 25.0602C3.53028 25.298 3.83566 25.4289 4.16043 25.4289C4.4852 25.4289 4.79058 25.298 5.02022 25.0602C5.49425 24.5691 5.49425 23.7703 5.02022 23.2795ZM4.39911 24.4168C4.3354 24.4828 4.25062 24.5192 4.16055 24.5192C4.07042 24.5192 3.9857 24.4828 3.92198 24.4168C3.85827 24.3508 3.82317 24.263 3.82317 24.1697C3.82317 24.0764 3.85827 23.9887 3.92204 23.9227C3.98576 23.8567 4.07048 23.8203 4.16061 23.8203C4.25074 23.8203 4.33546 23.8567 4.39917 23.9227C4.53059 24.059 4.53059 24.2806 4.39911 24.4168Z" />
		<path d="M17.1717 4.68958C14.9813 4.68958 13.1992 6.53499 13.1992 8.80335C13.1992 11.0717 14.9813 12.9171 17.1717 12.9171C19.3621 12.9171 21.1442 11.0717 21.1442 8.80335C21.1442 6.53493 19.3622 4.68958 17.1717 4.68958ZM17.1717 12.0074C15.4657 12.0074 14.0777 10.5702 14.0777 8.80342C14.0777 7.03667 15.4657 5.59941 17.1717 5.59941C18.8777 5.59941 20.2656 7.03667 20.2656 8.80342C20.2656 10.5702 18.8777 12.0074 17.1717 12.0074Z" />
		<path d="M17.9962 8.59321C17.8596 8.52482 17.7131 8.47344 17.5567 8.43919C17.4004 8.40499 17.2538 8.3708 17.1172 8.33648C16.9806 8.30229 16.8672 8.25781 16.7769 8.20304C16.6866 8.14827 16.6414 8.06159 16.6414 7.94299C16.6414 7.8244 16.6866 7.74455 16.7769 7.70346C16.8672 7.66237 16.9762 7.64185 17.104 7.64185C17.5392 7.64185 17.8983 7.7833 18.1812 8.06615V7.27916C18.0755 7.15829 17.8178 7.06932 17.408 7.01227V6.22535C17.408 6.21167 17.3992 6.20483 17.3816 6.20483H16.8067C16.7891 6.20483 16.7802 6.21395 16.7802 6.23219V7.00556C16.6437 7.05805 16.5059 7.135 16.3672 7.23653C16.2284 7.33806 16.1292 7.4492 16.0698 7.57014C16.0103 7.69101 15.9806 7.84158 15.9806 8.02179C15.9806 8.20199 16.0258 8.35595 16.1161 8.48379C16.2761 8.71008 16.5371 8.86521 16.8992 8.94918L17.342 9.05188C17.4776 9.08336 17.5909 9.12316 17.6817 9.17122C17.7725 9.21939 17.8178 9.29135 17.8178 9.38722C17.8178 9.55806 17.7129 9.67671 17.503 9.74313C17.4165 9.77048 17.2836 9.78416 17.1041 9.78416C16.8531 9.78416 16.6261 9.72255 16.4235 9.59933C16.2209 9.47618 16.0666 9.30503 15.9609 9.08607V10.01C16.2341 10.182 16.5161 10.312 16.8068 10.4001L16.8133 11.0981C16.8134 11.1118 16.82 11.1186 16.8332 11.1186H17.408C17.4257 11.1186 17.4345 11.1095 17.4345 11.0912V10.4479C17.809 10.3188 18.0835 10.1399 18.2581 9.91138C18.4008 9.72465 18.472 9.54074 18.472 9.35974C18.472 9.00759 18.3134 8.75216 17.9962 8.59321Z" />
		<path d="M25.6545 3.63189V2.11152H23.9061V0.674316H3.85083V11.017H5.59932V12.4542H7.14434V13.9745H27.1996V3.63189H25.6545ZM5.59932 10.1072H4.72936V1.58409H23.0276V2.11158H5.59932V10.1072ZM7.14434 11.5444H6.47784V3.02129H24.776V3.63183H7.14434V11.5444ZM26.3211 13.0648H8.02287V4.5416H26.3211V13.0648Z" />
		<path d="M6.47923 15.3458H5.59985V16.3389H6.47923V15.3458Z" />
		<path d="M17.612 28.6071H16.7327V29.6001H17.612V28.6071Z" />
		<path d="M27.978 25.2488H27.0986V26.2418H27.978V25.2488Z" />
		<path d="M26.5989 30.0968H25.7195V31.0899H26.5989V30.0968Z" />
		<path d="M2.58225 6.01038H1.70288V7.0035H2.58225V6.01038Z" />
		<path d="M1.86765 13.7617H0.988281V14.7548H1.86765V13.7617Z" />
	</symbol>
	<symbol id="cable" viewBox="0 0 36 36">
		<path d="M16.5748 13.9726C16.4931 13.8653 16.3569 13.8011 16.2112 13.8011H14.9827L15.6804 12.2505C15.7705 12.0504 15.6609 11.8232 15.4358 11.7432C15.2106 11.6629 14.9552 11.7605 14.8651 11.9606L13.9267 14.0464C13.8726 14.1667 13.889 14.303 13.9708 14.4102C14.0524 14.5175 14.1886 14.5817 14.3343 14.5817H15.5628L14.8651 16.1322C14.775 16.3324 14.8846 16.5595 15.1097 16.6396C15.1632 16.6586 15.2183 16.6676 15.2726 16.6676C15.4469 16.6676 15.6117 16.5748 15.6804 16.4222L16.6188 14.3364C16.6729 14.2161 16.6565 14.0798 16.5748 13.9726Z" />
		<path d="M27.8385 3.10536C26.2792 1.6973 24.2008 0.903682 21.9861 0.870688C19.7761 0.837174 17.6664 1.59993 16.0459 3.01663C14.3816 4.47158 13.4272 6.4846 13.4272 8.53942V10.0471H11.9893C11.2297 10.0471 10.6118 10.5965 10.6118 11.2718V17.112C10.6118 17.7873 11.2298 18.3366 11.9893 18.3366H13.4272V20.0321C13.4272 21.2096 12.8634 22.3412 11.8804 23.1368C10.8847 23.9425 9.59457 24.3242 8.24823 24.2115C5.85595 24.0113 3.98207 22.1165 3.98207 19.8977C3.98207 19.6822 3.78551 19.5074 3.54305 19.5074C3.30059 19.5074 3.10402 19.6822 3.10402 19.8977C3.10402 21.1565 3.6144 22.3707 4.5411 23.3168C5.48272 24.2781 6.77006 24.8719 8.16593 24.9886C8.34926 25.004 8.53155 25.0116 8.71266 25.0116C10.1082 25.0116 11.4264 24.5598 12.4715 23.714C13.6369 22.7708 14.3053 21.4289 14.3053 20.0321V18.3366H16.2427V19.8443C16.2427 21.6913 15.3839 23.5014 13.8864 24.8105C12.4351 26.0793 10.5502 26.762 8.57656 26.7326C6.5934 26.7031 4.73193 25.9921 3.33524 24.7308C1.93686 23.468 1.16681 21.7993 1.16681 20.0321V14.6091C1.16681 14.5942 1.18033 14.5822 1.19701 14.5822H3.07393C3.09062 14.5822 3.10414 14.5942 3.10414 14.6091V18.2071C3.10414 18.4226 3.3007 18.5974 3.54316 18.5974C3.78562 18.5974 3.98219 18.4226 3.98219 18.2071V14.6091C3.98219 14.1638 3.57477 13.8016 3.07393 13.8016H2.57444V11.6889C2.57444 11.4734 2.37787 11.2986 2.13541 11.2986C1.89295 11.2986 1.69639 11.4734 1.69639 11.6889V13.8016H1.19695C0.696112 13.8016 0.288696 14.1638 0.288696 14.6091V20.0321C0.288696 22.0055 1.14843 23.8687 2.70948 25.2784C4.26873 26.6865 6.34713 27.4801 8.56187 27.5131C8.60776 27.5137 8.65336 27.5141 8.69914 27.5141C10.8591 27.5141 12.9152 26.7545 14.502 25.3671C16.1663 23.9122 17.1207 21.8991 17.1207 19.8443V18.3366H18.5586C19.3182 18.3366 19.9361 17.7872 19.9361 17.112V11.2718C19.9361 10.5965 19.3181 10.0472 18.5586 10.0472H17.1207V8.35166C17.1207 7.17419 17.6845 6.04257 18.6675 5.24703C19.6632 4.44129 20.9533 4.05973 22.2997 4.17229C24.692 4.37249 26.5658 6.26734 26.5658 8.48608C26.5658 8.70163 26.7624 8.87638 27.0049 8.87638C27.2473 8.87638 27.4439 8.70163 27.4439 8.48608C27.4439 7.22733 26.9335 6.01307 26.0068 5.06697C25.0652 4.10568 23.7778 3.51195 22.382 3.39517C20.786 3.26164 19.2572 3.71428 18.0764 4.6698C16.911 5.61298 16.2426 6.95495 16.2426 8.35166V10.0472H14.3051V8.53947C14.3051 6.69251 15.164 4.88238 16.6615 3.57325C18.1128 2.30445 19.9978 1.62226 21.9713 1.65124C23.9545 1.68075 25.8159 2.39167 27.2126 3.65303C28.611 4.91585 29.381 6.58452 29.381 8.35171V13.7747C29.381 13.7896 29.3675 13.8016 29.3508 13.8016H27.4739C27.4572 13.8016 27.4437 13.7896 27.4437 13.7747V10.1767C27.4437 9.96117 27.2471 9.78642 27.0047 9.78642C26.7622 9.78642 26.5657 9.96117 26.5657 10.1767V13.7747C26.5657 14.22 26.9731 14.5822 27.4739 14.5822H27.9734V16.6949C27.9734 16.9104 28.1699 17.0852 28.4124 17.0852C28.6548 17.0852 28.8514 16.9104 28.8514 16.6949V14.5822H29.3508C29.8517 14.5822 30.2591 14.22 30.2591 13.7747V8.35166C30.2593 6.37823 29.3995 4.51513 27.8385 3.10536ZM18.5586 10.8278C18.834 10.8278 19.058 11.027 19.058 11.2718V17.112C19.058 17.3569 18.834 17.5561 18.5586 17.5561H11.9893C11.7139 17.5561 11.4899 17.3568 11.4899 17.112V11.2718C11.4899 11.027 11.714 10.8278 11.9893 10.8278H18.5586Z" />
		<path d="M1.58886 10.2628L1.11963 9.42852C1.01122 9.23571 0.747516 9.15749 0.530637 9.25398C0.313759 9.35036 0.225836 9.5848 0.334305 9.77761L0.803535 10.6119C0.880453 10.7487 1.03546 10.8277 1.19655 10.8277C1.26252 10.8277 1.32949 10.8145 1.39253 10.7865C1.60941 10.6901 1.69733 10.4556 1.58886 10.2628Z" />
		<path d="M3.7387 9.25397C3.52182 9.15748 3.25811 9.23575 3.1497 9.42851L2.68047 10.2628C2.57206 10.4556 2.65992 10.6901 2.8768 10.7865C2.93985 10.8145 3.00681 10.8277 3.07278 10.8277C3.23382 10.8277 3.38888 10.7486 3.4658 10.6119L3.93503 9.7776C4.0435 9.58479 3.95558 9.35035 3.7387 9.25397Z" />
		<path d="M30.2122 18.6055L29.7429 17.7712C29.6345 17.5784 29.3709 17.5001 29.1539 17.5966C28.937 17.693 28.8491 17.9274 28.9576 18.1203L29.4268 18.9546C29.5037 19.0913 29.6587 19.1704 29.8198 19.1704C29.8858 19.1704 29.9528 19.1571 30.0158 19.1291C30.2327 19.0327 30.3206 18.7983 30.2122 18.6055Z" />
		<path d="M27.6699 17.5966C27.453 17.5001 27.1893 17.5784 27.0809 17.7712L26.6116 18.6055C26.5032 18.7983 26.5911 19.0327 26.808 19.1291C26.871 19.1572 26.938 19.1704 27.004 19.1704C27.165 19.1704 27.3201 19.0913 27.397 18.9546L27.8662 18.1202C27.9747 17.9274 27.8867 17.693 27.6699 17.5966Z" />
	</symbol>
	<symbol id="payment-1" viewBox="0 0 36 36">
		<path d="M10.1366 20.476C10.129 20.4428 10.1179 20.4101 10.1032 20.3785C10.0886 20.3474 10.0704 20.3173 10.0494 20.2893C10.0283 20.2608 10.0037 20.2343 9.97678 20.2105C9.94985 20.1866 9.92 20.1649 9.8878 20.1462C9.85619 20.1275 9.82224 20.1115 9.78653 20.0985C9.75141 20.0855 9.71453 20.0752 9.67706 20.0689C9.60155 20.0555 9.5237 20.0555 9.44877 20.0689C9.4113 20.0752 9.37442 20.0855 9.33872 20.0985C9.30359 20.1115 9.26964 20.1275 9.23803 20.1462C9.20584 20.1649 9.17598 20.1866 9.14905 20.2105C9.12213 20.2343 9.09754 20.2608 9.07647 20.2893C9.05481 20.3173 9.03725 20.3474 9.02261 20.3785C9.00798 20.4101 8.99627 20.4428 8.98925 20.476C8.98164 20.5091 8.97754 20.5434 8.97754 20.5771C8.97754 20.6108 8.98164 20.645 8.98925 20.6782C8.99627 20.7113 9.00798 20.744 9.02261 20.7751C9.03725 20.8067 9.05481 20.8368 9.07647 20.8648C9.09754 20.8933 9.12213 20.9198 9.14905 20.9436C9.17598 20.9675 9.20584 20.9892 9.23803 21.0079C9.26964 21.0266 9.30359 21.0427 9.33872 21.0557C9.37442 21.0686 9.4113 21.079 9.44877 21.0852C9.48623 21.0919 9.52487 21.0956 9.56292 21.0956C9.60097 21.0956 9.6396 21.0919 9.67706 21.0852C9.71453 21.079 9.75141 21.0686 9.78653 21.0557C9.82224 21.0427 9.85619 21.0266 9.8878 21.0079C9.92 20.9892 9.94985 20.9675 9.97678 20.9436C10.0037 20.9198 10.0283 20.8933 10.0494 20.8648C10.0704 20.8368 10.0886 20.8067 10.1032 20.7751C10.1179 20.744 10.129 20.7113 10.1366 20.6782C10.1442 20.645 10.1483 20.6108 10.1483 20.5771C10.1483 20.5434 10.1442 20.5091 10.1366 20.476Z" />
		<path d="M26.9631 20.6352C26.9608 20.6301 26.9585 20.6249 26.956 20.6198C26.4172 19.5032 25.1536 19.0905 23.6582 19.5429L19.58 20.5418C19.3442 19.9093 18.7561 19.3711 17.9245 19.0978C17.9193 19.0962 17.9142 19.0945 17.909 19.0929L13.4261 17.7453C13.053 17.3181 11.8842 16.2251 9.69591 16.2251C8.16661 16.2251 6.81375 17.1543 6.03976 18.1671H0.62151C0.298206 18.1671 0.0361328 18.3993 0.0361328 18.6856V25.2224C0.0361328 25.5087 0.298206 25.7409 0.62151 25.7409H4.10199C4.42529 25.7409 4.68737 25.5087 4.68737 25.2224V24.7747H6.31957C6.64288 24.7747 6.90495 24.5426 6.90495 24.2563V24.107C7.85642 24.1806 8.16936 24.3404 9.04322 24.7867C9.71523 25.1299 10.7309 25.6487 12.56 26.3771C12.5685 26.3805 12.5771 26.3837 12.5857 26.3867C12.9367 26.509 13.623 26.7011 14.469 26.7011C15.0579 26.7011 15.7244 26.608 16.4084 26.3333L25.4227 23.4747C25.4388 23.4696 25.4546 23.4639 25.47 23.4576C26.3315 23.1065 27.6153 22.1171 26.9631 20.6352ZM3.51661 24.7039H1.20689V19.204H3.51661V24.7039ZM5.73419 23.7377H4.68737V19.204H5.73419V23.7377ZM25.0022 22.5065L15.992 25.3639C15.9841 25.3664 15.9734 25.3701 15.9656 25.3729C15.9577 25.3758 15.9498 25.3788 15.942 25.3819C14.6871 25.8927 13.4943 25.5869 13.0268 25.4259C11.26 24.7218 10.3171 24.2402 9.62807 23.8883C8.67015 23.3991 8.20858 23.1633 6.90495 23.0679V18.892C7.45983 18.0865 8.53587 17.262 9.69597 17.262C11.6854 17.262 12.5284 18.4081 12.5616 18.4543C12.633 18.5573 12.7429 18.6349 12.8721 18.6737L17.5244 20.0723C18.2674 20.3193 18.6601 20.8829 18.4796 21.4449C18.3963 21.7044 18.2038 21.9197 17.9377 22.051C17.6739 22.1812 17.3689 22.2134 17.0782 22.1422L11.8337 20.6701C11.5253 20.5836 11.1964 20.7348 11.0988 21.0078C11.0011 21.2807 11.1718 21.5721 11.48 21.6587L16.7337 23.1332C16.7392 23.1348 16.7448 23.1363 16.7504 23.1377C16.9601 23.1905 17.1737 23.2167 17.386 23.2167C17.7745 23.2167 18.1588 23.129 18.5076 22.9569C19.0469 22.6907 19.4369 22.2545 19.6057 21.7285C19.6192 21.6865 19.6311 21.6445 19.6415 21.6025L24.0367 20.5241C24.6714 20.332 25.5047 20.2628 25.8757 21.0196C26.2597 21.9081 25.2617 22.3969 25.0022 22.5065Z"/>
		<path d="M21.0547 6.97705C21.047 6.94387 21.0359 6.9112 21.0207 6.87958C21.0061 6.84847 20.9885 6.8184 20.9668 6.7904C20.9458 6.76188 20.9212 6.73544 20.8943 6.71159C20.8673 6.68774 20.8375 6.66596 20.8053 6.6473C20.7737 6.62863 20.7397 6.61256 20.7046 6.5996C20.6689 6.58664 20.632 6.57627 20.5951 6.57005C20.5196 6.55657 20.4418 6.55657 20.3662 6.57005C20.3288 6.57627 20.2919 6.58664 20.2568 6.5996C20.2211 6.61256 20.1871 6.62863 20.1555 6.6473C20.1233 6.66596 20.0935 6.68774 20.0665 6.71159C20.0396 6.73544 20.015 6.76188 19.9939 6.7904C19.9729 6.8184 19.9547 6.84847 19.9401 6.87958C19.9255 6.9112 19.9138 6.94387 19.9067 6.97705C19.8991 7.01023 19.895 7.04445 19.895 7.07815C19.895 7.11185 19.8991 7.14607 19.9067 7.17925C19.9138 7.21244 19.9255 7.2451 19.9401 7.27621C19.9547 7.30784 19.9729 7.33791 19.9939 7.3659C20.015 7.39442 20.0396 7.42086 20.0665 7.44471C20.0935 7.46856 20.1233 7.49034 20.1555 7.509C20.1871 7.52767 20.2211 7.54374 20.2568 7.5567C20.2919 7.56967 20.3288 7.57952 20.3662 7.58626C20.4037 7.593 20.4423 7.59663 20.4804 7.59663C20.5184 7.59663 20.5571 7.593 20.5951 7.58626C20.632 7.57952 20.6689 7.56967 20.7046 7.5567C20.7397 7.54374 20.7737 7.52767 20.8053 7.509C20.8375 7.49034 20.8673 7.46856 20.8943 7.44471C20.9212 7.42086 20.9458 7.39442 20.9668 7.3659C20.9885 7.33791 21.0061 7.30784 21.0207 7.27621C21.0359 7.2451 21.047 7.21244 21.0547 7.17925C21.0623 7.14607 21.0658 7.11185 21.0658 7.07815C21.0658 7.04445 21.0623 7.01023 21.0547 6.97705Z" />
		<path d="M29.422 1.91404H25.9415C25.6182 1.91404 25.3561 2.14616 25.3561 2.43251V2.88016H23.7239C23.4006 2.88016 23.1385 3.11228 23.1385 3.39864V3.54785C22.187 3.47428 21.8741 3.31449 21.0003 2.86819C20.3283 2.52496 19.3126 2.00622 17.4835 1.27782C17.475 1.2744 17.4664 1.27123 17.4577 1.26823C16.8623 1.06073 15.3019 0.652485 13.6353 1.32147L11.2797 2.06849L9.29417 0.309929C9.06558 0.107465 8.69492 0.107465 8.46633 0.309929L1.94769 6.0835C1.73683 6.27031 1.69638 6.5942 1.94769 6.81678L13.0867 16.6827C13.2649 16.8406 13.6823 16.8884 13.9146 16.6827L19.8658 11.4117C20.0205 11.4235 20.1811 11.4299 20.3475 11.4299C21.8769 11.4299 23.2297 10.5006 24.0036 9.48786H29.422C29.7453 9.48786 30.0073 9.25574 30.0073 8.96939V2.43251C30.0073 2.14616 29.7453 1.91404 29.422 1.91404ZM8.88019 1.40977L10.2144 2.59148C9.81779 2.80872 9.35927 2.92496 8.88019 2.92496C8.40106 2.92496 7.94259 2.80877 7.546 2.59148L8.88019 1.40977ZM4.5237 7.63188L3.18951 6.45012L4.5237 5.26841C4.76897 5.61968 4.90021 6.0258 4.90021 6.45012C4.90021 6.87444 4.76903 7.28056 4.5237 7.63188ZM13.5006 15.5828L12.1667 14.4013C12.9811 13.9561 14.02 13.9561 14.8345 14.4013L13.5006 15.5828ZM15.6779 13.6544C14.3844 12.8233 12.6169 12.8233 11.3233 13.6544L5.36705 8.37879C5.82417 7.82195 6.07097 7.15307 6.07097 6.45012C6.07097 5.74712 5.82423 5.07829 5.36705 4.52145L6.70271 3.33849C7.3314 3.74337 8.08654 3.96196 8.88025 3.96196C9.67396 3.96196 10.4291 3.74337 11.0578 3.33849L12.3239 4.4599C12.0507 4.49563 11.7843 4.57537 11.5359 4.69799C11.1163 4.90506 10.7871 5.21516 10.5821 5.59033C9.92175 5.69864 9.31044 5.98178 8.8309 6.40646C7.5299 7.55882 7.5299 9.43378 8.83096 10.5861C9.48143 11.1623 10.3359 11.4504 11.1904 11.4504C12.0449 11.4504 12.8994 11.1623 13.55 10.5861C13.9732 10.2113 14.2697 9.75057 14.4182 9.24848L16.3947 9.8426C16.1722 10.7555 16.4001 11.716 17.0148 12.4703L15.6779 13.6544ZM12.119 8.55709C12.1241 8.55875 12.1293 8.56041 12.1345 8.56197L13.305 8.91386C13.2166 9.2672 13.0166 9.59207 12.7221 9.85292C11.8776 10.6009 10.5033 10.601 9.65886 9.85292C8.81428 9.10491 8.81428 7.88779 9.65886 7.13974C9.86257 6.95921 10.103 6.81813 10.3649 6.72247C10.473 7.51895 11.1205 8.2289 12.119 8.55709ZM17.8582 11.7232C17.6323 11.3971 17.5044 11.0249 17.4842 10.645C17.7646 10.8245 18.1073 11.0005 18.5166 11.1401L17.8582 11.7232ZM23.1385 8.76267C22.5836 9.56827 21.5076 10.3928 20.3475 10.3928C20.1304 10.3928 19.927 10.3791 19.7368 10.3547C19.7361 10.3546 19.7353 10.3545 19.7345 10.3544C18.4704 10.1918 17.7903 9.55542 17.5662 9.30344C17.5543 9.28788 17.5034 9.22893 17.4958 9.21913C17.4276 9.11119 17.3158 9.02439 17.1732 8.98152L12.519 7.58241C11.7763 7.33552 11.3837 6.77219 11.5636 6.21038C11.5637 6.21001 11.5639 6.20965 11.564 6.20929C11.5641 6.20887 11.5643 6.20841 11.5644 6.20799C11.648 5.94927 11.8402 5.73468 12.1057 5.60366C12.3694 5.47347 12.6744 5.44117 12.9652 5.51256L18.2098 6.98456C18.518 7.0712 18.847 6.91991 18.9446 6.64693C19.0423 6.37395 18.8716 6.08257 18.5634 5.99604L14.3923 4.82532L14.3559 4.79307C14.3556 4.79276 14.3552 4.7924 14.3548 4.79209L12.1954 2.87944L14.0515 2.29076C14.0577 2.28874 14.0655 2.2862 14.0717 2.28397C14.0732 2.2834 14.0763 2.28236 14.0778 2.28179C14.0858 2.27894 14.0936 2.27593 14.1014 2.27277C15.3562 1.76197 16.549 2.06771 17.0165 2.22875C18.7834 2.93289 19.7264 3.4145 20.4154 3.76639C21.3733 4.25567 21.8349 4.49143 23.1385 4.58677V8.76267ZM25.3561 8.45081H24.3093V3.91711H25.3561V8.45081ZM28.8366 8.45081H26.5269V2.95099H28.8366V8.45081Z"/>
	</symbol>
	<symbol id="worker" viewBox="0 0 36 36">
		<path d="M22.9106 27.4761C22.5167 27.4761 22.197 27.7592 22.197 28.1081C22.197 28.457 22.5167 28.7402 22.9106 28.7402C23.3045 28.7402 23.6242 28.457 23.6242 28.1081C23.6242 27.7592 23.3045 27.4761 22.9106 27.4761Z" />
		<path d="M8.63889 27.4761C8.24499 27.4761 7.92529 27.7592 7.92529 28.1081C7.92529 28.457 8.24499 28.7402 8.63889 28.7402C9.0328 28.7402 9.35249 28.457 9.35249 28.1081C9.35249 27.7592 9.0328 27.4761 8.63889 27.4761Z" />
		<path d="M29.4502 24.2027C28.6469 23.1013 27.543 22.2262 26.2499 21.6611C26.1409 21.5714 26.0006 21.5113 25.8447 21.4959C24.9094 21.1443 23.9235 20.9658 22.9104 20.9658H20.7696V19.2982C22.0085 18.3567 22.8991 17.1096 23.331 15.7197H23.624C25.1979 15.7197 26.4784 14.5855 26.4784 13.1914C26.4784 12.5307 26.1905 11.9287 25.7204 11.4778C25.7653 11.4441 25.8091 11.4089 25.8512 11.3717C26.2557 11.0134 26.4784 10.5373 26.4784 10.031C26.4784 9.19903 25.87 8.49092 25.0267 8.2362C24.7746 5.32969 22.4716 2.8459 19.3007 2.06745C19.1128 1.19822 18.303 0.360352 17.2016 0.360352H14.3472C13.2458 0.360352 12.436 1.19822 12.2481 2.06745C9.07749 2.84584 6.77471 5.32918 6.52216 8.23531C6.21517 8.32753 5.93366 8.48131 5.6976 8.69034C5.29313 9.0486 5.07042 9.52473 5.07042 10.031C5.07042 10.6102 5.36542 11.1292 5.82897 11.4773C5.35857 11.9282 5.07042 12.5305 5.07042 13.1914C5.07042 14.5855 6.3509 15.7197 7.92481 15.7197H8.21582C8.57633 16.8799 9.25989 17.9452 10.2135 18.8251C10.3927 18.9906 10.5826 19.1482 10.7792 19.2977V20.9658H8.63841C7.62524 20.9658 6.63934 21.1443 5.70409 21.4959C5.54824 21.5113 5.40795 21.5714 5.29898 21.661C4.00573 22.2262 2.90193 23.1013 2.09863 24.2026C1.24174 25.3774 0.788818 26.728 0.788818 28.1082V32.0903C0.788818 32.4393 1.1083 32.7223 1.50242 32.7223H30.0464C30.4405 32.7223 30.76 32.4393 30.76 32.0903V28.1082C30.76 26.728 30.3071 25.3774 29.4502 24.2027ZM5.07042 31.4582H2.21602V28.1082C2.21602 26.1857 3.32795 24.3429 5.07042 23.249V31.4582ZM23.624 14.4555H23.5915C23.6127 14.2452 23.624 14.0342 23.624 13.8234V11.9272C24.411 11.9272 25.0512 12.4943 25.0512 13.1914C25.0512 13.8884 24.411 14.4555 23.624 14.4555ZM12.2064 3.40307V6.2386C12.2064 6.58769 12.5259 6.87067 12.92 6.87067C13.3141 6.87067 13.6336 6.58769 13.6336 6.2386V2.57658C13.6336 2.57493 13.6336 2.57329 13.6336 2.57165V2.44618C13.6336 2.05455 14.0071 1.62449 14.3472 1.62449H17.2016C17.5417 1.62449 17.9152 2.05455 17.9152 2.44618V2.57165C17.9152 2.57329 17.9152 2.57493 17.9152 2.57658V6.2386C17.9152 6.58769 18.2347 6.87067 18.6288 6.87067C19.0229 6.87067 19.3424 6.58769 19.3424 6.2386V3.40307C21.6466 4.12534 23.31 5.97225 23.5841 8.13481H7.9647C8.2388 5.97225 9.9022 4.12534 12.2064 3.40307ZM7.92481 14.4555C7.13786 14.4555 6.49761 13.8884 6.49761 13.1914C6.49761 12.4943 7.13786 11.9272 7.92481 11.9272V13.8234C7.92481 14.0342 7.93609 14.2453 7.95735 14.4555H7.92481ZM7.92481 10.6631H7.21121C6.81774 10.6631 6.49761 10.3795 6.49761 10.031C6.49761 9.86238 6.5719 9.70367 6.70677 9.58428C6.84171 9.46475 7.02083 9.39895 7.21121 9.39895H24.3376C24.7311 9.39895 25.0512 9.6825 25.0512 10.031C25.0512 10.1997 24.9769 10.3584 24.842 10.4778C24.7072 10.5973 24.528 10.6631 24.3376 10.6631H23.624H22.9104H8.63841H7.92481ZM9.48167 14.9727C9.48025 14.9658 9.47889 14.959 9.47718 14.9523C9.39433 14.5813 9.35201 14.2016 9.35201 13.8234V11.9272H22.1968V13.8234C22.1968 14.2013 22.1545 14.5807 22.0716 14.952C22.0699 14.9588 22.0686 14.9657 22.0671 14.9726C21.7482 16.3826 20.8657 17.6447 19.5805 18.5274C18.464 19.2957 17.1479 19.7017 15.7744 19.7017C14.4009 19.7017 13.0849 19.2957 11.9673 18.5267C11.7115 18.3514 11.468 18.1574 11.2433 17.9499C10.3431 17.1192 9.73429 16.0902 9.48167 14.9727ZM15.0608 31.4582H9.35201V30.0044C9.35201 29.6553 9.03253 29.3724 8.63841 29.3724C8.24429 29.3724 7.92481 29.6553 7.92481 30.0044V31.4582H6.49761V22.576C6.96074 22.4213 7.43785 22.3182 7.92481 22.2674V26.212C7.92481 26.5611 8.24429 26.8441 8.63841 26.8441C9.03253 26.8441 9.35201 26.5611 9.35201 26.212V22.23H11.187L15.0608 25.8328V31.4582ZM12.2064 21.3451V20.1678C13.3076 20.6921 14.5204 20.9658 15.7744 20.9658C17.0285 20.9658 18.2414 20.692 19.3424 20.1678V21.3451L15.7744 24.6634L12.2064 21.3451ZM25.0512 31.4582H23.624V30.0044C23.624 29.6553 23.3045 29.3724 22.9104 29.3724C22.5163 29.3724 22.1968 29.6553 22.1968 30.0044V31.4582H16.488V25.8328L20.3618 22.23H22.1968V26.212C22.1968 26.5611 22.5163 26.8441 22.9104 26.8441C23.3045 26.8441 23.624 26.5611 23.624 26.212V22.2674C24.111 22.3182 24.588 22.4214 25.0512 22.576V31.4582ZM29.3328 31.4582H26.4784V23.2489C28.2209 24.3429 29.3328 26.1856 29.3328 28.1082V31.4582Z" />
	</symbol>
	<symbol id="atom" viewBox="0 0 36 36">
		<path d="M15.3116 6.68894C12.1656 6.73541 9.1551 7.83534 6.88147 9.76901C4.57174 11.7198 3.27181 14.2615 3.2212 16.9255C3.19662 18.2824 3.47926 19.6298 4.05231 20.8876C4.62536 22.1455 5.47711 23.288 6.55691 24.2472C8.35071 25.8347 9.28073 28.0339 9.10143 30.2054H8.41727C8.25531 30.2054 8.09999 30.2626 7.98547 30.3644C7.87095 30.4662 7.80661 30.6043 7.80661 30.7483C7.80661 30.8923 7.87095 31.0304 7.98547 31.1322C8.09999 31.234 8.25531 31.2912 8.41727 31.2912H9.79284V34.2063C9.79546 34.3516 9.86215 34.4902 9.97855 34.5922C10.0949 34.6942 10.2517 34.7515 10.4152 34.7517H20.6203C20.7838 34.7515 20.9407 34.6941 21.0571 34.5921C21.1735 34.49 21.2401 34.3513 21.2426 34.206V31.2908H22.6184C22.7803 31.2908 22.9356 31.2336 23.0502 31.1318C23.1647 31.03 23.229 30.8919 23.229 30.748C23.229 30.604 23.1647 30.4659 23.0502 30.3641C22.9356 30.2623 22.7803 30.2051 22.6184 30.2051H21.7905C21.5893 27.9657 22.4787 25.9702 24.3808 24.289C24.3828 24.2873 24.3847 24.2786 24.3866 24.2768C26.5658 22.2981 27.7659 19.749 27.7659 17.1054C27.7659 14.3887 26.5379 11.8147 24.3081 9.86055C21.9255 7.77268 18.7296 6.64572 15.3116 6.68894ZM20.0213 33.666H11.0142V31.2908H20.0213V33.666ZM23.5168 23.5216C21.4081 25.387 20.3753 27.6942 20.5669 30.2051H10.3249C10.5004 27.6942 9.44233 25.2685 7.4177 23.4771C6.45459 22.6226 5.69481 21.6044 5.18363 20.4833C4.67245 19.3621 4.42033 18.161 4.44228 16.9515C4.4874 14.5805 5.65237 12.3082 7.72265 10.5597C9.77379 8.81359 12.4903 7.81965 15.3297 7.77634C18.418 7.73631 21.3028 8.75076 23.4506 10.6333C25.4458 12.3817 26.5446 14.6859 26.5446 17.1095C26.5446 19.4661 25.4694 21.7474 23.5168 23.5216Z" />
		<path d="M15.213 4.49863C15.3749 4.49863 15.5302 4.44143 15.6447 4.33962C15.7593 4.23781 15.8236 4.09972 15.8236 3.95574V1.23161C15.8236 1.08762 15.7593 0.949539 15.6447 0.847728C15.5302 0.745917 15.3749 0.688721 15.213 0.688721C15.051 0.688721 14.8957 0.745917 14.7812 0.847728C14.6666 0.949539 14.6023 1.08762 14.6023 1.23161V3.95574C14.6023 4.09972 14.6666 4.23781 14.7812 4.33962C14.8957 4.44143 15.051 4.49863 15.213 4.49863Z" />
		<path d="M29.4919 6.50065L26.7049 8.65394C26.5827 8.74843 26.5076 8.88222 26.4964 9.02588C26.4851 9.16954 26.5384 9.31131 26.6447 9.41999C26.751 9.52867 26.9015 9.59536 27.0631 9.6054C27.2247 9.61543 27.3841 9.56799 27.5064 9.4735L30.2934 7.32021C30.354 7.27342 30.4035 7.21649 30.4393 7.15268C30.4751 7.08886 30.4964 7.0194 30.502 6.94826C30.5076 6.87713 30.4973 6.80571 30.4719 6.73809C30.4464 6.67047 30.4062 6.60797 30.3536 6.55416C30.301 6.50035 30.237 6.45628 30.1652 6.42446C30.0934 6.39265 30.0153 6.37372 29.9352 6.36875C29.8552 6.36378 29.7749 6.37287 29.6988 6.3955C29.6228 6.41814 29.5525 6.45386 29.4919 6.50065Z" />
		<path d="M3.78183 9.23203C3.90386 9.23205 4.0231 9.19956 4.12417 9.13876C4.22524 9.07796 4.3035 8.99163 4.34886 8.89091C4.39421 8.79019 4.40458 8.6797 4.37863 8.57369C4.35268 8.46768 4.29159 8.37101 4.20325 8.29616L1.56423 6.05961C1.50619 6.01042 1.43782 5.97187 1.36301 5.94617C1.28821 5.92047 1.20845 5.90812 1.12828 5.90982C1.04811 5.91153 0.969106 5.92725 0.895773 5.9561C0.822439 5.98495 0.756216 6.02636 0.700883 6.07796C0.64555 6.12957 0.602192 6.19035 0.573284 6.25685C0.544376 6.32335 0.530484 6.39426 0.532401 6.46554C0.534318 6.53681 0.552008 6.60705 0.584459 6.67224C0.616909 6.73744 0.663487 6.79631 0.721531 6.8455L3.36055 9.08206C3.47397 9.17847 3.6249 9.2322 3.78183 9.23203Z" />
		<path d="M22.631 17.1407C23.7057 15.578 23.8931 14.1927 23.1587 13.2402C22.4243 12.2877 20.9036 11.9436 18.8765 12.2711C18.8536 12.2748 18.8307 12.2795 18.8083 12.2833C18.799 12.2645 18.7903 12.2449 18.7809 12.2263C17.9386 10.5547 16.7594 9.63405 15.4605 9.63405C15.3763 9.63443 15.2923 9.63876 15.2086 9.64701C14.8553 9.36634 14.3987 9.21029 13.9249 9.20827C13.4511 9.20625 12.9928 9.35841 12.6365 9.63606C12.2802 9.91371 12.0505 10.2977 11.9906 10.7155C11.9308 11.1334 12.045 11.5562 12.3117 11.9044C12.2426 12.0268 12.176 12.1531 12.1117 12.2831C12.0893 12.2794 12.0665 12.2747 12.0442 12.2711C10.017 11.9437 8.49613 12.2879 7.76197 13.2402C7.02781 14.1926 7.21497 15.578 8.28965 17.1407C8.47101 17.4045 8.6749 17.669 8.89863 17.9328C8.88137 17.9531 8.86425 17.9734 8.84725 17.9939C8.40879 17.9096 7.95103 17.963 7.55183 18.1449C7.15263 18.3268 6.83664 18.6261 6.65761 18.9917C6.47857 19.3574 6.44755 19.7669 6.56982 20.1506C6.69209 20.5343 6.96009 20.8685 7.32825 21.0964C7.29008 21.6797 7.43656 22.2019 7.76166 22.6233C8.31491 23.3408 9.31448 23.7131 10.6407 23.7131C11.1116 23.7102 11.5813 23.6699 12.0441 23.5925C12.0666 23.5888 12.0899 23.5841 12.1124 23.5803C12.1216 23.599 12.1303 23.6186 12.1397 23.6372C12.982 25.3089 14.1613 26.2295 15.4601 26.2295C16.759 26.2295 17.9382 25.3088 18.7806 23.6372C18.7899 23.6186 18.7986 23.599 18.8079 23.5803C18.8308 23.5841 18.8537 23.5888 18.8761 23.5925C19.3389 23.6699 19.8086 23.7103 20.2795 23.7131C21.6055 23.7131 22.6054 23.3408 23.1586 22.6233C23.4715 22.2177 23.619 21.7183 23.5953 21.1615C23.9977 20.9475 24.2994 20.6114 24.4446 20.215C24.5899 19.8187 24.5688 19.389 24.3854 19.0054C24.202 18.6218 23.8686 18.3102 23.4468 18.1282C23.0251 17.9461 22.5434 17.9059 22.0909 18.0151C22.068 17.9875 22.0451 17.96 22.0222 17.9325C22.2459 17.6688 22.4497 17.4044 22.631 17.1407ZM18.0479 22.2999C17.6335 22.1903 17.2256 22.0623 16.8256 21.9164C17.2251 21.7079 17.6215 21.4841 18.0149 21.245C18.1561 21.1591 18.2952 21.0718 18.4323 20.9832C18.3331 21.4283 18.2047 21.868 18.0479 22.2999ZM12.8706 22.299C12.7146 21.8674 12.587 21.4281 12.4884 20.9833C12.6258 21.0716 12.7648 21.1588 12.9056 21.245C13.2979 21.4841 13.6943 21.7079 14.0947 21.9162C13.6941 22.062 13.2856 22.1897 12.8706 22.299ZM10.9488 18.3857C10.7843 18.2357 10.6265 18.0847 10.4756 17.9329C10.6262 17.7814 10.7836 17.6308 10.9479 17.4809C10.9437 17.6305 10.9415 17.7808 10.9415 17.9318C10.9419 18.0838 10.9446 18.235 10.9488 18.3857ZM13.5962 20.3495C13.1198 20.0592 12.6663 19.7547 12.2393 19.4405C12.1893 18.9499 12.163 18.4452 12.163 17.9318C12.163 17.4184 12.1888 16.9148 12.2385 16.4253C12.6674 16.109 13.1212 15.8033 13.5959 15.514C14.1944 15.1483 14.8167 14.8144 15.4595 14.5139C16.1026 14.8145 16.7252 15.1484 17.3242 15.514C17.7989 15.8033 18.2526 16.1088 18.6812 16.4248C18.7311 16.9148 18.757 17.4189 18.757 17.9313C18.757 18.4547 18.7306 18.9585 18.6815 19.4397C18.2544 19.754 17.8007 20.0585 17.3242 20.3491C16.7258 20.7147 16.1036 21.0487 15.461 21.3493C14.8179 21.0488 14.1952 20.7149 13.5962 20.3495ZM12.8694 13.5627C13.285 13.6725 13.6942 13.8008 14.0952 13.9472C13.6958 14.1557 13.2994 14.3795 12.9059 14.6186C12.7641 14.7049 12.6247 14.7932 12.4861 14.8822C12.5848 14.4361 12.7128 13.9955 12.8694 13.5627ZM18.0503 13.565C18.2063 13.9966 18.3339 14.4359 18.4325 14.8807C18.2951 14.7922 18.156 14.7048 18.0152 14.6186C17.623 14.3795 17.2256 14.1558 16.8263 13.9474C17.2267 13.8018 17.6351 13.6742 18.05 13.565H18.0503ZM19.972 17.4801C20.1364 17.6301 20.2942 17.781 20.4453 17.9327C20.2944 18.0846 20.1367 18.2356 19.972 18.3857C19.9762 18.235 19.979 18.0838 19.979 17.9318C19.979 17.7798 19.9759 17.63 19.9717 17.4801H19.972ZM22.1514 13.8542C22.5908 14.4242 22.3859 15.4157 21.589 16.5744C21.4749 16.7403 21.351 16.9066 21.2172 17.0734C20.7852 16.6529 20.3268 16.2544 19.8442 15.8798C19.7336 15.0119 19.5324 14.1551 19.2431 13.3203C20.6676 13.1167 21.7321 13.3103 22.1514 13.8542ZM17.6038 12.5496C16.869 12.7514 16.1525 13.0024 15.4603 13.3002C14.8724 13.048 14.2673 12.8287 13.6485 12.6437C13.9236 12.6782 14.2037 12.6597 14.47 12.5895C14.7363 12.5194 14.9825 12.3992 15.1921 12.2371C15.4016 12.0751 15.5695 11.8749 15.6845 11.6502C15.7995 11.4254 15.8589 11.1813 15.8586 10.9344C15.8586 10.8819 15.8555 10.83 15.8504 10.7787C16.4749 10.9645 17.0947 11.5857 17.6038 12.5496ZM13.917 10.2939C14.0595 10.2939 14.1988 10.3315 14.3173 10.4018C14.4357 10.4722 14.5281 10.5722 14.5826 10.6893C14.6372 10.8063 14.6514 10.9351 14.6237 11.0593C14.5959 11.1836 14.5273 11.2977 14.4265 11.3873C14.3258 11.4768 14.1974 11.5378 14.0576 11.5626C13.9179 11.5873 13.773 11.5746 13.6414 11.5261C13.5097 11.4776 13.3972 11.3956 13.3181 11.2902C13.2389 11.1849 13.1966 11.0611 13.1966 10.9344C13.1969 10.7646 13.2728 10.6018 13.4078 10.4818C13.5429 10.3617 13.7259 10.2942 13.9169 10.2939H13.917ZM9.33158 16.5744C8.53475 15.4157 8.3298 14.4241 8.76924 13.8542C9.19395 13.3034 10.2501 13.1109 11.6775 13.3177C11.388 14.1536 11.1865 15.0115 11.0756 15.8805C10.5933 16.2549 10.1351 16.6531 9.70309 17.0732C9.56981 16.9067 9.44595 16.7404 9.3315 16.5744H9.33158ZM8.4385 19.0407C8.58099 19.0407 8.72028 19.0782 8.83876 19.1486C8.95724 19.219 9.04959 19.319 9.10413 19.436C9.15867 19.5531 9.17295 19.6818 9.14516 19.8061C9.11737 19.9303 9.04876 20.0445 8.94801 20.134C8.84727 20.2236 8.7189 20.2846 8.57915 20.3093C8.4394 20.3341 8.29454 20.3214 8.1629 20.2729C8.03125 20.2244 7.91873 20.1423 7.83957 20.037C7.76041 19.9317 7.71815 19.8079 7.71815 19.6812C7.71837 19.5114 7.79429 19.3487 7.92927 19.2286C8.06424 19.1086 8.24726 19.041 8.43819 19.0407H8.4385ZM10.6439 22.623C9.74316 22.623 9.07968 22.4118 8.76947 22.0094C8.63617 21.829 8.55992 21.62 8.54872 21.4044C8.82188 21.3908 9.08873 21.3261 9.33174 21.2144C9.57475 21.1027 9.78843 20.9465 9.95872 20.7561C10.129 20.5658 10.2521 20.3456 10.3198 20.1099C10.3876 19.8743 10.3985 19.6286 10.3518 19.3889C10.5835 19.5904 10.8252 19.7892 11.077 19.9852C11.1876 20.8527 11.3888 21.7092 11.6781 22.5435C11.3362 22.5944 10.9902 22.6209 10.6436 22.623H10.6439ZM15.4604 25.1438C14.7088 25.1438 13.9321 24.4787 13.3169 23.314C14.0517 23.1121 14.7682 22.8612 15.4604 22.5633C16.1515 22.8607 16.8668 23.1113 17.6003 23.313C16.9837 24.4732 16.202 25.1438 15.4603 25.1438H15.4604ZM19.2423 22.5457C19.5319 21.7107 19.7334 20.8536 19.8442 19.9853C20.1486 19.7486 20.4395 19.5072 20.7143 19.2621C20.6473 19.5003 20.6381 19.7484 20.6875 19.9899C20.7368 20.2314 20.8436 20.4608 21.0006 20.6628C21.1577 20.8647 21.3614 21.0345 21.5981 21.1608C21.8349 21.2872 22.0992 21.3672 22.3735 21.3955C22.3634 21.6143 22.2866 21.8265 22.1512 22.0094C21.7265 22.5604 20.6698 22.7528 19.2421 22.5457H19.2423ZM23.3184 19.6812C23.3184 19.8079 23.2762 19.9317 23.197 20.037C23.1178 20.1423 23.0053 20.2244 22.8737 20.2729C22.742 20.3214 22.5972 20.3341 22.4574 20.3093C22.3177 20.2846 22.1893 20.2236 22.0885 20.134C21.9878 20.0445 21.9192 19.9303 21.8914 19.8061C21.8636 19.6818 21.8779 19.5531 21.9324 19.436C21.987 19.319 22.0793 19.219 22.1978 19.1486C22.3163 19.0782 22.4556 19.0407 22.5981 19.0407C22.7891 19.0409 22.9722 19.1084 23.1072 19.2285C23.2423 19.3486 23.3182 19.5114 23.3184 19.6812Z" />
		<path d="M15.4601 16.2056C15.0761 16.2056 14.7007 16.3068 14.3813 16.4965C14.062 16.6861 13.8131 16.9557 13.6661 17.2712C13.5192 17.5866 13.4807 17.9337 13.5556 18.2685C13.6305 18.6034 13.8155 18.911 14.087 19.1524C14.3586 19.3938 14.7045 19.5583 15.0812 19.6249C15.4579 19.6915 15.8483 19.6573 16.2031 19.5267C16.5579 19.396 16.8612 19.1747 17.0745 18.8909C17.2879 18.607 17.4018 18.2732 17.4018 17.9318C17.4012 17.4741 17.1965 17.0354 16.8325 16.7117C16.4684 16.3881 15.9749 16.2061 15.4601 16.2056ZM15.4601 18.5722C15.3176 18.5722 15.1783 18.5347 15.0598 18.4643C14.9414 18.3939 14.849 18.2939 14.7945 18.1769C14.7399 18.0598 14.7257 17.9311 14.7535 17.8068C14.7813 17.6826 14.8499 17.5684 14.9506 17.4789C15.0514 17.3893 15.1798 17.3283 15.3195 17.3036C15.4593 17.2789 15.6041 17.2916 15.7358 17.34C15.8674 17.3885 15.9799 17.4706 16.0591 17.576C16.1382 17.6813 16.1805 17.8051 16.1805 17.9318C16.1802 18.1016 16.1042 18.2644 15.9692 18.3844C15.8342 18.5045 15.6511 18.572 15.4601 18.5722Z" />
	</symbol>
	<symbol id="plan" viewBox="0 0 36 36">
		<path d="M4.02221 34.0185H26.5004C28.5687 34.0167 30.2448 32.5241 30.2471 30.6823V7.3287C30.2448 5.4869 28.5687 3.99432 26.5004 3.99254H22.2671C21.9149 3.64026 21.4107 3.43791 20.8811 3.43664H18.9561C18.6528 1.83003 17.0908 0.65332 15.2615 0.65332C13.4319 0.65332 11.8701 1.83003 11.5669 3.43664H9.64184C9.11192 3.43791 8.608 3.64026 8.25558 3.99254H4.02221C1.95397 3.99432 0.27788 5.4869 0.275879 7.3287V30.6823C0.27788 32.5241 1.95397 34.0167 4.02221 34.0185ZM26.5004 25.678H22.1299C21.4402 25.678 20.8811 26.1758 20.8811 26.79V30.6823H4.64674C4.30174 30.6823 4.02221 30.4334 4.02221 30.1262V7.88485C4.02221 7.57763 4.30174 7.3287 4.64674 7.3287H7.76853C7.76853 8.25011 8.60743 8.9969 9.64184 8.9969H20.8811C21.9155 8.9969 22.7541 8.25011 22.7541 7.3287H25.8762C26.2209 7.3287 26.5004 7.57763 26.5004 7.88485V25.678ZM25.6175 26.79L22.1299 29.8961V26.79H25.6175ZM9.64184 4.54869H12.1394C12.4844 4.54869 12.7639 4.29976 12.7639 3.99254C12.7639 2.76416 13.8821 1.76843 15.2615 1.76843C16.6409 1.76843 17.759 2.76416 17.759 3.99254C17.759 4.29976 18.0386 4.54869 18.3833 4.54869H20.8811C21.2258 4.54869 21.5053 4.79762 21.5053 5.10459V7.3287C21.5053 7.63592 21.2258 7.88485 20.8811 7.88485H9.64184C9.29684 7.88485 9.01731 7.63592 9.01731 7.3287V5.10459C9.01731 4.79762 9.29684 4.54869 9.64184 4.54869V4.54869ZM1.52465 7.3287C1.52465 6.10032 2.64281 5.10459 4.02221 5.10459H7.76853V6.21664H4.64674C3.61204 6.21664 2.77343 6.96344 2.77343 7.88485V30.1262C2.77343 31.0476 3.61204 31.7944 4.64674 31.7944H20.9883C21.2464 31.7936 21.5016 31.7453 21.7377 31.6521C21.7494 31.648 21.7589 31.6414 21.77 31.6371C21.9712 31.5551 22.1545 31.4421 22.3114 31.3034L27.1993 26.9506C27.3534 26.8114 27.4785 26.6493 27.5694 26.4713C27.5757 26.4596 27.584 26.4502 27.5889 26.4385C27.6932 26.2285 27.7475 26.0012 27.7481 25.7714V7.88485C27.7481 6.96344 26.9095 6.21664 25.8748 6.21664H22.7541V5.10459H26.5004C27.8798 5.10459 28.998 6.10032 28.998 7.3287V30.6823C28.998 31.9107 27.8798 32.9064 26.5004 32.9064H4.02221C2.64281 32.9064 1.52465 31.9107 1.52465 30.6823V7.3287Z" />
		<path d="M12.1394 6.7727H18.3833C18.7283 6.7727 19.0078 6.52377 19.0078 6.21655C19.0078 5.90958 18.7283 5.66064 18.3833 5.66064H12.1394C11.7947 5.66064 11.5151 5.90958 11.5151 6.21655C11.5151 6.52377 11.7947 6.7727 12.1394 6.7727Z" />
		<path d="M10.8906 15.1133C10.5459 15.1133 10.2661 15.3622 10.2661 15.6692V16.2253H6.51977V12.8892H8.39308C8.73778 12.8892 9.01732 12.6402 9.01732 12.333C9.01732 12.026 8.73778 11.7771 8.39308 11.7771H6.51977C5.83007 11.7771 5.271 12.275 5.271 12.8892V16.2253C5.271 16.8395 5.83007 17.3374 6.51977 17.3374H10.2661C10.9558 17.3374 11.5152 16.8395 11.5152 16.2253V15.6692C11.5152 15.3622 11.2356 15.1133 10.8906 15.1133Z" />
		<path d="M10.2661 19.5618H6.51977C5.83007 19.5618 5.271 20.0596 5.271 20.6738V24.01C5.271 24.6242 5.83007 25.122 6.51977 25.122H10.2661C10.9558 25.122 11.5152 24.6242 11.5152 24.01V20.6738C11.5152 20.0596 10.9558 19.5618 10.2661 19.5618V19.5618ZM6.51977 24.01V20.6738H10.2661V24.01H6.51977Z" />
		<path d="M13.3879 14.0012H16.51C16.8547 14.0012 17.1342 13.7523 17.1342 13.4451C17.1342 13.1381 16.8547 12.8892 16.51 12.8892H13.3879C13.0432 12.8892 12.7637 13.1381 12.7637 13.4451C12.7637 13.7523 13.0432 14.0012 13.3879 14.0012Z"/>
		<path d="M24.6272 12.8892H19.0076C18.6626 12.8892 18.3831 13.1381 18.3831 13.4451C18.3831 13.7523 18.6626 14.0012 19.0076 14.0012H24.6272C24.9719 14.0012 25.2515 13.7523 25.2515 13.4451C25.2515 13.1381 24.9719 12.8892 24.6272 12.8892V12.8892Z"/>
		<path d="M13.3879 16.2256H19.6318C19.9768 16.2256 20.2563 15.9766 20.2563 15.6694C20.2563 15.3625 19.9768 15.1135 19.6318 15.1135H13.3879C13.0432 15.1135 12.7637 15.3625 12.7637 15.6694C12.7637 15.9766 13.0432 16.2256 13.3879 16.2256V16.2256Z" />
		<path d="M24.6275 15.1135H22.1299C21.7849 15.1135 21.5054 15.3625 21.5054 15.6694C21.5054 15.9766 21.7849 16.2256 22.1299 16.2256H24.6275C24.9722 16.2256 25.2517 15.9766 25.2517 15.6694C25.2517 15.3625 24.9722 15.1135 24.6275 15.1135Z"/>
		<path d="M13.3879 21.7856H16.51C16.8547 21.7856 17.1342 21.5367 17.1342 21.2297C17.1342 20.9225 16.8547 20.6736 16.51 20.6736H13.3879C13.0432 20.6736 12.7637 20.9225 12.7637 21.2297C12.7637 21.5367 13.0432 21.7856 13.3879 21.7856Z"/>
		<path d="M24.6272 20.6736H19.0076C18.6626 20.6736 18.3831 20.9225 18.3831 21.2297C18.3831 21.5367 18.6626 21.7856 19.0076 21.7856H24.6272C24.9719 21.7856 25.2515 21.5367 25.2515 21.2297C25.2515 20.9225 24.9719 20.6736 24.6272 20.6736V20.6736Z" />
		<path d="M19.6318 22.8977H13.3879C13.0432 22.8977 12.7637 23.1466 12.7637 23.4539C12.7637 23.7608 13.0432 24.0098 13.3879 24.0098H19.6318C19.9768 24.0098 20.2563 23.7608 20.2563 23.4539C20.2563 23.1466 19.9768 22.8977 19.6318 22.8977V22.8977Z" />
		<path d="M24.6275 22.8977H22.1299C21.7849 22.8977 21.5054 23.1466 21.5054 23.4539C21.5054 23.7608 21.7849 24.0098 22.1299 24.0098H24.6275C24.9722 24.0098 25.2517 23.7608 25.2517 23.4539C25.2517 23.1466 24.9722 22.8977 24.6275 22.8977V22.8977Z"/>
		<path d="M11.6317 10.8981L8.93747 14.2559L8.21004 13.6081C7.96509 13.3973 7.57551 13.4004 7.33484 13.615C7.09389 13.8295 7.09046 14.1762 7.32713 14.3943L8.5759 15.5064C8.69309 15.6107 8.85172 15.6693 9.01722 15.6693H9.06867C9.25159 15.6558 9.41852 15.571 9.52484 15.4382L12.6469 11.5459C12.787 11.3847 12.817 11.1684 12.725 10.9818C12.6329 10.7952 12.4337 10.6685 12.2056 10.6514C11.9778 10.6341 11.7574 10.7296 11.6317 10.8996V10.8981Z"/>
	</symbol>
	<symbol id="famous" viewBox="0 0 36 36">
		<path d="M17.8751 15.6801C20.1331 14.2709 20.6785 11.5012 19.0933 9.49387C17.5082 7.48656 14.3928 7.00162 12.1349 8.41086C9.877 9.82011 9.33152 12.5898 10.9167 14.5971C11.2491 15.0181 11.6613 15.3845 12.1349 15.6801C9.46764 16.0877 7.51683 18.142 7.51221 20.548V26.7062C7.51214 26.9514 7.73568 27.1502 8.01148 27.1503C8.01154 27.1503 8.01166 27.1503 8.01173 27.1503H21.9983C22.2741 27.1503 22.4977 26.9516 22.4978 26.7064C22.4978 26.7064 22.4978 26.7063 22.4978 26.7062V20.548C22.4931 18.142 20.5424 16.0877 17.8751 15.6801ZM11.0088 12.0514C11.0088 10.0893 12.798 8.49874 15.005 8.49874C17.212 8.49874 19.0012 10.0893 19.0012 12.0514C19.0012 14.0135 17.212 15.6041 15.005 15.6041C12.7991 15.6019 11.0113 14.0125 11.0088 12.0514ZM21.4988 26.2621H8.51125V20.548C8.51406 18.3091 10.5549 16.4948 13.0733 16.4923H16.9368C19.4551 16.4948 21.496 18.3091 21.4988 20.548V26.2621Z"/>
		<path d="M15.5054 3.17017H14.5054V4.9465H15.5054V3.17017Z"/>
		<path d="M20.8528 4.26402L19.4399 5.51953L20.1464 6.14729L21.5593 4.89178L20.8528 4.26402Z" />
		<path d="M27.4934 26.262H25.4954V27.1501H27.4934V26.262Z"/>
		<path d="M27.4934 21.8213H25.4954V22.7095H27.4934V21.8213Z"/>
		<path d="M27.4934 17.3809H25.4954V18.269H27.4934V17.3809Z"/>
		<path d="M26.7855 12.6809L24.8901 13.2427L25.2063 14.0851L27.1017 13.5233L26.7855 12.6809Z"/>
		<path d="M25.2332 8.07569L23.3379 8.63745L23.6541 9.47987L25.5494 8.91811L25.2332 8.07569Z"/>
		<path d="M9.15771 4.2654L8.45117 4.89307L9.86385 6.14876L10.5704 5.52109L9.15771 4.2654Z"/>
		<path d="M4.51517 26.262H2.51709V27.1501H4.51517V26.262Z"/>
		<path d="M4.51517 21.8213H2.51709V22.7095H4.51517V21.8213Z"/>
		<path d="M4.51517 17.3809H2.51709V18.269H4.51517V17.3809Z"/>
		<path d="M3.22606 12.6807L2.91016 13.5232L4.80568 14.0844L5.12159 13.2419L3.22606 12.6807Z"/>
		<path d="M4.77558 8.07888L4.45947 8.92139L6.355 9.48297L6.6711 8.64046L4.77558 8.07888Z"/>
		<path d="M29.491 2.2822C28.6638 2.28142 27.9934 1.6854 27.9925 0.949944C27.9925 0.704698 27.7688 0.505859 27.493 0.505859C27.2171 0.505859 26.9934 0.704698 26.9934 0.949944C26.9926 1.6854 26.3221 2.28142 25.4949 2.2822C25.219 2.2822 24.9954 2.48104 24.9954 2.72628C24.9954 2.97153 25.219 3.17037 25.4949 3.17037C26.3221 3.17114 26.9926 3.76716 26.9934 4.50262C26.9934 4.74787 27.2171 4.9467 27.493 4.9467C27.7688 4.9467 27.9925 4.74787 27.9925 4.50262C27.9934 3.76716 28.6638 3.17114 29.491 3.17037C29.7669 3.17037 29.9906 2.97153 29.9906 2.72628C29.9906 2.48104 29.7669 2.2822 29.491 2.2822ZM27.493 3.17164C27.3504 3.00295 27.1818 2.85301 26.992 2.72628C27.1818 2.59955 27.3504 2.44962 27.493 2.28092C27.6355 2.44962 27.8042 2.59955 27.9939 2.72628C27.8042 2.85301 27.6355 3.00295 27.493 3.17164Z"/>
		<path d="M4.51497 2.2822C3.6877 2.28142 3.01728 1.6854 3.01641 0.949944C3.01641 0.704698 2.79275 0.505859 2.51689 0.505859C2.24103 0.505859 2.01737 0.704698 2.01737 0.949944C2.01649 1.6854 1.34607 2.28142 0.518807 2.2822C0.242947 2.2822 0.0192871 2.48104 0.0192871 2.72628C0.0192871 2.97153 0.242947 3.17037 0.518807 3.17037C1.34607 3.17114 2.01649 3.76716 2.01737 4.50262C2.01737 4.74787 2.24103 4.9467 2.51689 4.9467C2.79275 4.9467 3.01641 4.74787 3.01641 4.50262C3.01728 3.76716 3.6877 3.17114 4.51497 3.17037C4.79083 3.17037 5.01449 2.97153 5.01449 2.72628C5.01449 2.48104 4.79083 2.2822 4.51497 2.2822ZM2.51689 3.17164C2.37434 3.00295 2.20569 2.85301 2.01593 2.72628C2.20569 2.59955 2.37434 2.44962 2.51689 2.28092C2.65944 2.44962 2.82809 2.59955 3.01784 2.72628C2.82809 2.85301 2.65944 3.00295 2.51689 3.17164Z"/>
	</symbol>
</svg>