<svg xmlns="http://www.w3.org/2000/svg" style="display: none;">
	<symbol id="clock" viewBox="0 0 36 36">
		<path d="M17.865 0.5C7.99854 0.5 0 8.33512 0 18C0 27.6649 7.99854 35.5 17.865 35.5C27.7315 35.5 35.73 27.6649 35.73 18C35.7189 8.33968 27.7268 0.510824 17.865 0.5ZM17.865 34.3333C8.65627 34.3333 1.191 27.0206 1.191 18C1.191 8.97941 8.65627 1.66667 17.865 1.66667C27.0737 1.66667 34.539 8.97941 34.539 18C34.5285 27.0163 27.0694 34.3231 17.865 34.3333Z"/>
		<path d="M17.8649 4C9.97165 4 3.57294 10.268 3.57294 18C3.57294 25.732 9.97165 32 17.8649 32C25.7582 32 32.1569 25.732 32.1569 18C32.1476 10.2717 25.7544 4.00911 17.8649 4ZM18.4604 30.8188V29.0833C18.4604 28.7612 18.1938 28.5 17.8649 28.5C17.5361 28.5 17.2694 28.7612 17.2694 29.0833V30.8188C10.5061 30.5095 5.09454 25.2085 4.77877 18.5833H6.55044C6.8793 18.5833 7.14594 18.3221 7.14594 18C7.14594 17.6779 6.8793 17.4167 6.55044 17.4167H4.77877C5.09454 10.7915 10.5061 5.49052 17.2694 5.18119V6.91666C17.2694 7.23881 17.5361 7.5 17.8649 7.5C18.1938 7.5 18.4604 7.23881 18.4604 6.91666V5.18119C25.2238 5.49052 30.6353 10.7915 30.9511 17.4167H29.1794C28.8506 17.4167 28.5839 17.6779 28.5839 18C28.5839 18.3221 28.8506 18.5833 29.1794 18.5833H30.9511C30.6353 25.2085 25.2238 30.5095 18.4604 30.8188Z"/>
		<path d="M25.6065 17.4167H19.5418C19.2903 16.72 18.6192 16.2531 17.865 16.25C17.5992 16.2509 17.3372 16.3107 17.0985 16.4249L17.095 16.4198L10.5445 10.0031C10.3107 9.78206 9.9394 9.7852 9.70969 10.0102C9.47998 10.2352 9.47678 10.599 9.70242 10.828L16.2529 17.2446L16.2582 17.248C16.1413 17.4822 16.0796 17.7394 16.0785 18C16.0767 18.8514 16.7022 19.5797 17.5588 19.7241C18.4154 19.8682 19.2531 19.3863 19.5418 18.5833H25.6065C25.9353 18.5833 26.202 18.3221 26.202 18C26.202 17.6779 25.9353 17.4167 25.6065 17.4167ZM17.865 18.5833C17.5361 18.5833 17.2695 18.3221 17.2695 18C17.2695 17.6779 17.5361 17.4167 17.865 17.4167C18.1938 17.4167 18.4605 17.6779 18.4605 18C18.4605 18.3221 18.1938 18.5833 17.865 18.5833Z"/>
	</symbol>
	<symbol id="phone" viewBox="0 0 36 36">
		<path d="M18.0326 1.244V0.5L16.5049 1.562L18.0326 2.624V2.044C27.3467 2.133 34.8944 9.417 34.8944 18.368C34.8944 27.373 27.255 34.7 17.8637 34.7C8.47236 34.7 0.832939 27.373 0.832939 18.368H-0.000244141C-0.000244141 27.814 8.01249 35.5 17.8637 35.5C27.7148 35.5 35.7276 27.814 35.7276 18.368C35.7276 8.977 27.8045 1.334 18.0326 1.244Z"/>
		<path d="M17.8021 33.289V34.019L19.334 32.957L17.8021 31.895V32.49C9.71011 32.459 3.13641 26.136 3.13641 18.37C3.13641 10.583 9.74139 4.24699 17.8636 4.24699C25.9838 4.24699 32.5888 10.583 32.5888 18.37H33.424C33.424 10.141 26.4468 3.44699 17.8636 3.44699C9.28048 3.44699 2.30322 10.142 2.30322 18.37C2.30322 26.578 9.25233 33.257 17.8021 33.289Z"/>
		<path d="M14.5841 21.512C14.6071 21.535 14.6311 21.559 14.6519 21.582L14.6561 21.577C15.5456 22.398 16.5967 23.607 18.3079 24.704C21.9128 27.01 24.6803 26.367 26.3092 25.51C29.1174 24.026 30.376 20.854 30.376 18.369C30.376 11.751 24.7627 6.367 17.8626 6.367C10.9605 6.367 5.34717 11.751 5.34717 18.369C5.34717 24.986 10.9605 30.369 17.8626 30.369C18.286 30.369 18.6312 30.037 18.6312 29.63C18.6312 29.223 18.286 28.891 17.8626 28.891C11.8114 28.891 6.89048 24.17 6.89048 18.37C6.89048 12.568 11.8135 7.848 17.8626 7.848C23.9118 7.848 28.8327 12.568 28.8327 18.37C28.8327 20.794 27.4865 23.198 25.5615 24.214C24.8628 24.583 24.1037 24.767 23.2945 24.775C23.7794 24.497 24.2007 24.123 24.5145 23.648C24.5781 23.56 24.6553 23.482 24.6981 23.384C24.9483 22.804 24.9734 22.148 25.1194 21.535C25.3091 20.751 21.553 19.225 21.2277 20.201C21.1078 20.563 20.9284 21.705 20.6896 22.007C20.4821 22.277 19.9628 22.148 19.6343 21.883C18.7772 21.185 17.824 20.155 16.9846 19.343L16.9867 19.342C16.9638 19.321 16.9366 19.298 16.9158 19.277C16.8928 19.255 16.8668 19.23 16.8459 19.209V19.21C15.9992 18.408 14.9272 17.492 14.1962 16.669C13.9209 16.357 13.7854 15.86 14.07 15.657C14.3839 15.429 15.5727 15.257 15.9523 15.145C16.969 14.832 15.3798 11.229 14.5612 11.409C13.922 11.553 13.2369 11.574 12.6341 11.815C12.5288 11.856 12.4485 11.933 12.3567 11.991C10.2107 13.296 9.93541 16.461 12.0293 18.818C12.8302 19.718 13.6602 20.592 14.5163 21.443L14.5101 21.447C14.5351 21.469 14.5622 21.489 14.5841 21.512Z"/>
	</symbol>
	<symbol id="maps" viewBox="0 0 36 36">
		<path d="M18.3732 0.236206C8.72367 0.236206 0.873169 5.75609 0.873169 12.5409C0.873169 14.8333 1.77627 17.0704 3.48543 19.0112L17.377 34.7515C17.6431 35.053 18.1119 35.2362 18.6161 35.2362C18.62 35.2362 18.6238 35.2362 18.6277 35.2362C19.1363 35.2334 19.606 35.0445 19.8673 34.7377L33.4048 18.845C35.0197 16.9452 35.8732 14.7652 35.8732 12.5409C35.8732 5.75609 28.0227 0.236206 18.3732 0.236206ZM30.9018 17.7921L18.5941 32.2411L5.96441 17.9308C4.54175 16.3153 3.77039 14.4515 3.77039 12.5409C3.77039 6.88689 10.3319 2.27332 18.3732 2.27332C26.4144 2.27332 32.9662 6.88689 32.9662 12.5409C32.9662 14.3949 32.2457 16.211 30.9018 17.7921Z"/>
		<path d="M18.3732 6.38855C13.5484 6.38855 9.62317 9.14849 9.62317 12.5409C9.62317 15.9116 13.4845 18.6932 18.3732 18.6932C23.3221 18.6932 27.1232 15.8746 27.1232 12.5409C27.1232 9.14849 23.1979 6.38855 18.3732 6.38855ZM18.3732 16.6561C15.1398 16.6561 12.5204 14.8082 12.5204 12.5409C12.5204 10.2793 15.1567 8.42566 18.3732 8.42566C21.5897 8.42566 24.2162 10.2793 24.2162 12.5409C24.2162 14.7751 21.6577 16.6561 18.3732 16.6561Z"/>
	</symbol>
	<symbol id="lock" viewBox="0 0 36 36">
		<path d="m18.75 9h-.75v-3c0-3.309-2.691-6-6-6s-6 2.691-6 6v3h-.75c-1.24 0-2.25 1.009-2.25 2.25v10.5c0 1.241 1.01 2.25 2.25 2.25h13.5c1.24 0 2.25-1.009 2.25-2.25v-10.5c0-1.241-1.01-2.25-2.25-2.25zm-10.75-3c0-2.206 1.794-4 4-4s4 1.794 4 4v3h-8zm5 10.722v2.278c0 .552-.447 1-1 1s-1-.448-1-1v-2.278c-.595-.347-1-.985-1-1.722 0-1.103.897-2 2-2s2 .897 2 2c0 .737-.405 1.375-1 1.722z"/>
	</symbol>
	<symbol id="menuTrigger" viewBox="0 0 36 36">
		<path d="M31.8067 0.183197H4.82767C2.61534 0.183197 0.817169 1.98137 0.817169 4.1937V31.1727C0.817169 33.385 2.61534 35.1832 4.82767 35.1832H31.8067C34.019 35.1832 35.8172 33.385 35.8172 31.1727V4.1937C35.8172 1.98137 34.019 0.183197 31.8067 0.183197V0.183197Z" fill="#005477"/>
		<path d="M24.1504 24.975H12.4839C11.6775 24.975 11.0254 24.3215 11.0254 23.5164C11.0254 22.7116 11.6775 22.0582 12.4839 22.0582H24.1504C24.9568 22.0582 25.6089 22.7116 25.6089 23.5164C25.6089 24.3215 24.9568 24.975 24.1504 24.975Z" fill="#DADADA"/>
		<path d="M24.1504 19.1415H12.4839C11.6775 19.1415 11.0254 18.4883 11.0254 17.6832C11.0254 16.8781 11.6775 16.225 12.4839 16.225H24.1504C24.9568 16.225 25.6089 16.8781 25.6089 17.6832C25.6089 18.4883 24.9568 19.1415 24.1504 19.1415Z" fill="#DADADA"/>
		<path d="M24.1504 13.3082H12.4839C11.6775 13.3082 11.0254 12.6548 11.0254 11.85C11.0254 11.0449 11.6775 10.3914 12.4839 10.3914H24.1504C24.9568 10.3914 25.6089 11.0449 25.6089 11.85C25.6089 12.6548 24.9568 13.3082 24.1504 13.3082Z" fill="#DADADA"/>
	</symbol>
	<symbol id="checklist" viewBox="0 0 36 36">
		<path d="M3.95277 5.416H7.26814C7.42926 5.41622 7.58393 5.3733 7.69822 5.29665C7.81252 5.22001 7.87711 5.1159 7.87783 5.00715V4.47934C7.87783 4.39812 7.83003 4.32023 7.74495 4.26281C7.65986 4.20538 7.54446 4.17312 7.42414 4.17312C7.30381 4.17312 7.18841 4.20538 7.10333 4.26281C7.01824 4.32023 6.97044 4.39812 6.97044 4.47934V4.80357H4.25047V2.95289H6.21353C6.33385 2.95289 6.44925 2.92063 6.53434 2.8632C6.61942 2.80577 6.66722 2.72789 6.66722 2.64667C6.66722 2.56546 6.61942 2.48757 6.53434 2.43014C6.44925 2.37272 6.33385 2.34046 6.21353 2.34046H3.95262C3.79149 2.34022 3.63681 2.38314 3.52251 2.45979C3.40821 2.53644 3.34363 2.64056 3.34293 2.74931V5.00715C3.34363 5.11592 3.40823 5.22005 3.52257 5.29671C3.6369 5.37336 3.79162 5.41626 3.95277 5.416Z" />
		<path d="M3.94785 11.3005H7.27275C7.43313 11.3003 7.58689 11.2573 7.7003 11.1807C7.81371 11.1042 7.8775 11.0004 7.87768 10.8922V8.63327C7.8775 8.52502 7.81371 8.42124 7.7003 8.3447C7.58689 8.26815 7.43313 8.2251 7.27275 8.22498H3.94785C3.78747 8.2251 3.63371 8.26815 3.5203 8.3447C3.4069 8.42124 3.34311 8.52502 3.34293 8.63327V10.8922C3.34311 11.0004 3.4069 11.1042 3.5203 11.1807C3.63371 11.2573 3.78747 11.3003 3.94785 11.3005ZM4.25032 8.83741H6.97029V10.688H4.25032V8.83741Z" />
		<path d="M3.94785 17.1847H7.27275C7.43313 17.1846 7.58689 17.1415 7.7003 17.065C7.81371 16.9884 7.8775 16.8846 7.87768 16.7764V14.5174C7.8775 14.4092 7.81371 14.3054 7.7003 14.2288C7.58689 14.1523 7.43313 14.1093 7.27275 14.1091H3.94785C3.78747 14.1093 3.63371 14.1523 3.5203 14.2288C3.4069 14.3054 3.34311 14.4092 3.34293 14.5174V16.7764C3.34311 16.8846 3.4069 16.9884 3.5203 17.065C3.63371 17.1415 3.78747 17.1846 3.94785 17.1847ZM4.25032 14.7216H6.97029V16.5722H4.25032V14.7216Z" />
		<path d="M3.94785 23.069H7.27275C7.43313 23.0689 7.58689 23.0258 7.7003 22.9493C7.81371 22.8728 7.8775 22.769 7.87768 22.6607V20.4018C7.8775 20.2936 7.81371 20.1898 7.7003 20.1132C7.58689 20.0367 7.43313 19.9937 7.27275 19.9935H3.94785C3.78747 19.9937 3.63371 20.0367 3.5203 20.1132C3.4069 20.1898 3.34311 20.2936 3.34293 20.4018V22.6607C3.34311 22.769 3.4069 22.8728 3.5203 22.9493C3.63371 23.0258 3.78747 23.0689 3.94785 23.069ZM4.25032 20.606H6.97029V22.4566H4.25032V20.606Z" />
		<path d="M10.7237 3.36244H22.3943C22.5147 3.36244 22.6301 3.33018 22.7152 3.27275C22.8002 3.21532 22.848 3.13743 22.848 3.05622C22.848 2.975 22.8002 2.89712 22.7152 2.83969C22.6301 2.78226 22.5147 2.75 22.3943 2.75H10.7237C10.6033 2.75 10.4879 2.78226 10.4028 2.83969C10.3178 2.89712 10.27 2.975 10.27 3.05622C10.27 3.13743 10.3178 3.21532 10.4028 3.27275C10.4879 3.33018 10.6033 3.36244 10.7237 3.36244Z" />
		<path d="M10.7237 5.05677H22.3943C22.5147 5.05677 22.6301 5.02451 22.7152 4.96708C22.8002 4.90965 22.848 4.83177 22.848 4.75055C22.848 4.66934 22.8002 4.59145 22.7152 4.53403C22.6301 4.4766 22.5147 4.44434 22.3943 4.44434H10.7237C10.6033 4.44434 10.4879 4.4766 10.4028 4.53403C10.3178 4.59145 10.27 4.66934 10.27 4.75055C10.27 4.83177 10.3178 4.90965 10.4028 4.96708C10.4879 5.02451 10.6033 5.05677 10.7237 5.05677Z"/>
		<path d="M10.7237 9.23841H22.3943C22.5147 9.23841 22.6301 9.20615 22.7152 9.14872C22.8002 9.0913 22.848 9.01341 22.848 8.93219C22.848 8.85098 22.8002 8.77309 22.7152 8.71567C22.6301 8.65824 22.5147 8.62598 22.3943 8.62598H10.7237C10.6033 8.62598 10.4879 8.65824 10.4028 8.71567C10.3178 8.77309 10.27 8.85098 10.27 8.93219C10.27 9.01341 10.3178 9.0913 10.4028 9.14872C10.4879 9.20615 10.6033 9.23841 10.7237 9.23841Z" />
		<path d="M10.7237 10.9327H22.3943C22.5147 10.9327 22.6301 10.9005 22.7152 10.8431C22.8002 10.7856 22.848 10.7077 22.848 10.6265C22.848 10.5453 22.8002 10.4674 22.7152 10.41C22.6301 10.3526 22.5147 10.3203 22.3943 10.3203H10.7237C10.6033 10.3203 10.4879 10.3526 10.4028 10.41C10.3178 10.4674 10.27 10.5453 10.27 10.6265C10.27 10.7077 10.3178 10.7856 10.4028 10.8431C10.4879 10.9005 10.6033 10.9327 10.7237 10.9327Z" />
		<path d="M10.7237 15.1141H22.3943C22.5147 15.1141 22.6301 15.0819 22.7152 15.0245C22.8002 14.967 22.848 14.8891 22.848 14.8079C22.848 14.7267 22.8002 14.6488 22.7152 14.5914C22.6301 14.534 22.5147 14.5017 22.3943 14.5017H10.7237C10.6033 14.5017 10.4879 14.534 10.4028 14.5914C10.3178 14.6488 10.27 14.7267 10.27 14.8079C10.27 14.8891 10.3178 14.967 10.4028 15.0245C10.4879 15.0819 10.6033 15.1141 10.7237 15.1141Z" />
		<path d="M10.7237 16.8087H22.3943C22.5147 16.8087 22.6301 16.7765 22.7152 16.719C22.8002 16.6616 22.848 16.5837 22.848 16.5025C22.848 16.4213 22.8002 16.3434 22.7152 16.286C22.6301 16.2286 22.5147 16.1963 22.3943 16.1963H10.7237C10.6033 16.1963 10.4879 16.2286 10.4028 16.286C10.3178 16.3434 10.27 16.4213 10.27 16.5025C10.27 16.5837 10.3178 16.6616 10.4028 16.719C10.4879 16.7765 10.6033 16.8087 10.7237 16.8087Z" />
		<path d="M10.7237 20.9901H17.1132C17.2335 20.9901 17.3489 20.9579 17.434 20.9004C17.5191 20.843 17.5669 20.7651 17.5669 20.6839C17.5669 20.6027 17.5191 20.5248 17.434 20.4674C17.3489 20.4099 17.2335 20.3777 17.1132 20.3777H10.7237C10.6033 20.3777 10.4879 20.4099 10.4028 20.4674C10.3178 20.5248 10.27 20.6027 10.27 20.6839C10.27 20.7651 10.3178 20.843 10.4028 20.9004C10.4879 20.9579 10.6033 20.9901 10.7237 20.9901Z" />
		<path d="M10.7237 22.6847H17.0441C17.1645 22.6847 17.2799 22.6524 17.365 22.595C17.45 22.5376 17.4978 22.4597 17.4978 22.3785C17.4978 22.2973 17.45 22.2194 17.365 22.162C17.2799 22.1045 17.1645 22.0723 17.0441 22.0723H10.7237C10.6033 22.0723 10.4879 22.1045 10.4028 22.162C10.3178 22.2194 10.27 22.2973 10.27 22.3785C10.27 22.4597 10.3178 22.5376 10.4028 22.595C10.4879 22.6524 10.6033 22.6847 10.7237 22.6847Z" />
		<path d="M5.42981 3.39958C5.33051 3.35488 5.20911 3.33839 5.09191 3.35369C4.97472 3.36898 4.87118 3.41484 4.80374 3.48131C4.73629 3.54778 4.71037 3.62951 4.7316 3.70879C4.75283 3.78807 4.81949 3.85851 4.91714 3.90484L5.96457 4.38892L6.00162 4.40015C6.0777 4.42324 6.16017 4.43517 6.24359 4.43516C6.34652 4.43527 6.44777 4.41748 6.53756 4.38352C6.62736 4.34955 6.70268 4.30054 6.75626 4.24122L8.87887 2.28143C8.91429 2.24898 8.93988 2.21212 8.95415 2.17298C8.96843 2.13384 8.97111 2.09318 8.96205 2.05333C8.95299 2.01349 8.93236 1.97524 8.90134 1.94079C8.87033 1.90634 8.82955 1.87636 8.78133 1.85258C8.73311 1.82879 8.6784 1.81166 8.62036 1.80218C8.56231 1.79269 8.50205 1.79104 8.44306 1.7973C8.38406 1.80357 8.32747 1.81764 8.27655 1.83871C8.22562 1.85977 8.18136 1.88741 8.1463 1.92005L6.17228 3.7429L5.42981 3.39958Z" />
		<path d="M2.76754 25.5201H19.2883C19.5589 25.5201 19.8266 25.4826 20.0749 25.4099C20.3231 25.3372 20.5467 25.2309 20.7316 25.0976L26.6756 20.7902C27.0094 20.5494 27.195 20.2319 27.1948 19.9021V1.72075C27.1915 1.37144 26.9829 1.03729 26.615 0.79162C26.2471 0.545948 25.7498 0.40881 25.2322 0.41029H2.76754C2.24999 0.40881 1.7527 0.545948 1.38477 0.79162C1.01684 1.03729 0.808311 1.37144 0.804932 1.72075V24.2097C0.808311 24.559 1.01684 24.8931 1.38477 25.1388C1.7527 25.3845 2.24999 25.5216 2.76754 25.5201ZM20.3856 24.4499L20.2904 20.7089L25.7299 20.5768L20.3856 24.4499ZM1.71232 1.72075C1.71543 1.53381 1.82828 1.35534 2.0261 1.22448C2.22392 1.09362 2.49056 1.02106 2.76754 1.02272H25.2322C25.5092 1.02106 25.7758 1.09362 25.9737 1.22448C26.1715 1.35534 26.2843 1.53381 26.2874 1.72075V19.902C26.2874 19.9182 26.2858 19.9343 26.2841 19.9504L19.9898 20.1035C19.9015 20.1026 19.8141 20.1147 19.7334 20.1389C19.6528 20.1631 19.581 20.1989 19.5229 20.2438C19.468 20.2861 19.4268 20.3358 19.402 20.3895C19.3773 20.4433 19.3695 20.4999 19.3793 20.5558L19.4895 24.8946C19.4233 24.9033 19.356 24.9078 19.2885 24.9079H2.76754C2.4905 24.9096 2.2238 24.837 2.02596 24.7061C1.82813 24.5752 1.71533 24.3966 1.71232 24.2097V1.72075Z" />
	</symbol>
	<symbol id="photo" viewBox="0 0 36 36">
		<path d="M30.2589 14.2125C29.9062 14.2125 29.6217 14.4433 29.6217 14.7304C29.6217 15.0368 29.9447 15.2761 30.3226 15.2456C30.6491 15.2192 30.896 14.9972 30.896 14.7304C30.896 14.4437 30.6121 14.2125 30.2589 14.2125Z" />
		<path d="M17.1204 12.1389C16.7677 12.1389 16.4832 12.3697 16.4832 12.6568C16.4832 12.9234 16.73 13.1456 17.0566 13.172C17.4347 13.2025 17.7575 12.963 17.7575 12.6568C17.7575 12.3701 17.4736 12.1389 17.1204 12.1389Z" />
		<path d="M17.1202 10.0648C12.5483 10.0648 8.82892 13.088 8.82892 16.8039C8.82892 20.5198 12.5483 23.543 17.1202 23.543C21.6921 23.543 25.4115 20.5198 25.4115 16.8039C25.4115 13.088 21.6921 10.0648 17.1202 10.0648ZM17.1202 22.5062C13.2518 22.5062 10.1045 19.9481 10.1045 16.8039C10.1045 13.6597 13.2518 11.1016 17.1202 11.1016C20.9887 11.1016 24.136 13.6597 24.136 16.8039C24.136 19.9481 20.9887 22.5062 17.1202 22.5062Z" />
		<path d="M19.8993 12.7225C19.5913 12.5835 19.2031 12.6738 19.0321 12.9241C18.8611 13.1743 18.9722 13.4899 19.2801 13.6289C20.7017 14.2705 21.5848 15.4871 21.5848 16.804C21.5848 17.0903 21.8704 17.3224 22.2225 17.3224C22.5747 17.3224 22.8603 17.0903 22.8603 16.804C22.8603 15.1107 21.7258 13.5468 19.8993 12.7225Z" />
		<path d="M31.5349 9.02802H30.8971V7.47285C30.8971 7.18654 30.6115 6.95445 30.2593 6.95445H27.7081C27.356 6.95445 27.0703 7.18654 27.0703 7.47285V9.02802H22.2243C21.6119 8.76213 20.9704 8.54503 20.3097 8.37987V6.95445H22.2231C23.2782 6.95445 24.1365 6.2568 24.1365 5.39928V2.28894C24.1365 1.43142 23.2782 0.733765 22.2231 0.733765H12.0184C10.9634 0.733765 10.1051 1.43142 10.1051 2.28894V5.39928C10.1051 6.2568 10.9634 6.95445 12.0184 6.95445H13.9318V8.37987C13.2712 8.54503 12.6298 8.76213 12.0172 9.02802C10.5011 9.02802 8.60114 9.02802 7.17121 9.02802V7.47285C7.17121 7.18654 6.8856 6.95445 6.53341 6.95445H3.98224C3.63005 6.95445 3.34445 7.18654 3.34445 7.47285V9.02802H2.70665C1.65162 9.02802 0.793274 9.72567 0.793274 10.5832C0.793274 11.0944 0.793274 22.4728 0.793274 23.0246C0.793274 23.8821 1.65162 24.5797 2.70665 24.5797H12.0172C13.5795 25.2577 15.3399 25.6165 17.1208 25.6165C18.9017 25.6165 20.662 25.2578 22.2243 24.5797H31.5349C32.5899 24.5797 33.4483 23.8821 33.4483 23.0246C33.4483 22.5133 33.4483 11.1349 33.4483 10.5832C33.4483 9.72567 32.5899 9.02802 31.5349 9.02802ZM28.3459 7.99124H29.6215V9.02802H28.3459V7.99124ZM12.0184 5.91767C11.6668 5.91767 11.3806 5.68512 11.3806 5.39928V2.28894C11.3806 2.0031 11.6668 1.77055 12.0184 1.77055H22.2231C22.5748 1.77055 22.8609 2.0031 22.8609 2.28894V5.39928C22.8609 5.68512 22.5748 5.91767 22.2231 5.91767H12.0184ZM19.0342 6.95445V8.12923C18.4051 8.0382 17.7646 7.99124 17.1208 7.99124C16.477 7.99124 15.8365 8.0382 15.2074 8.12918V6.95445H19.0342ZM4.62003 7.99124H5.89562V9.02802H4.62003V7.99124ZM2.06886 10.5832C2.06886 10.2973 2.35497 10.0596 2.70665 10.0596H10.1351C9.27152 10.6514 8.52307 11.3553 7.92106 12.1384H2.06886V10.5832ZM2.06886 13.17H7.23824C6.60803 14.3041 6.27829 15.548 6.27829 16.8039C6.27829 18.0598 6.60803 19.2985 7.23824 20.4326H2.06886V13.17ZM2.70665 23.543C2.35497 23.543 2.06886 23.3104 2.06886 23.0246V21.4694H7.92106C8.52314 22.2525 9.27158 22.9512 10.1351 23.543H2.70665ZM17.1208 24.5797C11.8332 24.5797 7.55388 21.095 7.55388 16.8039C7.55388 12.529 11.8136 9.02802 17.1208 9.02802C22.4047 9.02802 26.6877 12.5102 26.6877 16.8039C26.6877 21.111 22.3891 24.5797 17.1208 24.5797ZM32.1727 23.0246C32.1727 23.3104 31.8866 23.543 31.5349 23.543H24.1065C24.97 22.9512 25.7185 22.2525 26.3205 21.4694H32.1727V23.0246ZM32.1727 20.4326H27.0033C27.6335 19.2985 27.9633 18.0597 27.9633 16.8039C27.9633 15.548 27.6335 14.3093 27.0033 13.1751H32.1727V20.4326ZM32.1727 12.1384H26.3205C25.7185 11.3552 24.97 10.6565 24.1065 10.0648H31.5349C31.8866 10.0648 32.1727 10.2973 32.1727 10.5832V12.1384Z" />
		<path d="M20.9472 2.80725C20.5951 2.80725 20.3094 3.03933 20.3094 3.32564V4.36242C20.3094 4.64873 20.5951 4.88081 20.9472 4.88081C21.2994 4.88081 21.585 4.64873 21.585 4.36242V3.32564C21.585 3.03933 21.2994 2.80725 20.9472 2.80725Z" />
	</symbol>
	<symbol id="quote" viewBox="0 0 17 15">
		<path d="M0.142578 7.18189V14.0391H6.99976V7.18189H2.42832C2.42832 4.66125 4.47912 2.61045 6.99976 2.61045V0.324707C3.21848 0.324707 0.142578 3.40061 0.142578 7.18189Z" />
		<path d="M16.1426 2.61045V0.324707C12.3613 0.324707 9.2854 3.40061 9.2854 7.18189V14.0391H16.1426V7.18189H11.5711C11.5711 4.66125 13.6219 2.61045 16.1426 2.61045Z" />
	</symbol>
	<symbol id="mail" viewBox="0 0 454.573 454.573">
		<path d="M452.441,156.234l-65.829-46.498V41.817c-0.66-6.728-5.843-12.128-12.539-13.061H85.682c-6.695,0.934-11.879,6.333-12.539,13.061v67.396l-68.441,47.02c-2.711,1.968-4.428,5.021-4.702,8.359v248.163c0.89,6.811,6.25,12.172,13.061,13.061h433.633c5.747,0,7.837-6.792,7.837-13.061V164.593C454.531,161.458,455.053,158.323,452.441,156.234zM386.612,134.813l44.931,30.824l-44.931,33.959V134.813zM94.041,49.654h271.673v166.139l-135.837,102.4l-135.837-102.4V49.654zM73.143,134.291v65.829l-44.931-34.482L73.143,134.291zM20.898,187.058l146.286,110.759L20.898,396.56V187.058zM45.976,404.919l138.971-93.518l37.094,28.212c2.1,1.623,4.661,2.538,7.314,2.612c2.09,0,3.135-1.045,5.224-2.612l38.661-29.78l140.539,95.086H45.976zM433.633,392.903l-143.151-96.131l143.151-109.714V392.903z"/>
		<path d="M146.286,117.572h47.02c5.771,0,10.449-4.678,10.449-10.449s-4.678-10.449-10.449-10.449h-47.02c-5.771,0-10.449,4.678-10.449,10.449S140.515,117.572,146.286,117.572z"/>
		<path d="M146.286,164.593h167.184c5.771,0,10.449-4.678,10.449-10.449s-4.678-10.449-10.449-10.449H146.286c-5.771,0-10.449,4.678-10.449,10.449S140.515,164.593,146.286,164.593z"/>
		<path d="M323.918,201.164c0-5.771-4.678-10.449-10.449-10.449H146.286c-5.771,0-10.449,4.678-10.449,10.449s4.678,10.449,10.449,10.449h167.184C319.24,211.613,323.918,206.935,323.918,201.164z"/>
	</symbol>
	<symbol id="viber" viewBox="0 0 52.511 52.511">
		<path d="M31.256,0H21.254C10.778,0,2.255,8.521,2.255,18.995v9.01c0,7.8,4.793,14.81,12,17.665v5.841c0,0.396,0.233,0.754,0.595,0.914c0.13,0.058,0.268,0.086,0.405,0.086c0.243,0,0.484-0.089,0.671-0.259L21.725,47h9.531c10.476,0,18.999-8.521,18.999-18.995v-9.01C50.255,8.521,41.732,0,31.256,0zM48.255,28.005C48.255,37.376,40.63,45,31.256,45h-9.917c-0.248,0-0.487,0.092-0.671,0.259l-4.413,3.997v-4.279c0-0.424-0.267-0.802-0.667-0.942C8.81,41.638,4.255,35.196,4.255,28.005v-9.01C4.255,9.624,11.881,2,21.254,2h10.002c9.374,0,16.999,7.624,16.999,16.995V28.005z" />
		<path d="M39.471,30.493l-6.146-3.992c-0.672-0.437-1.472-0.585-2.255-0.423c-0.784,0.165-1.458,0.628-1.895,1.303l-0.289,0.444c-2.66-0.879-5.593-2.002-7.349-7.085l0.727-0.632h0c1.248-1.085,1.379-2.983,0.294-4.233l-4.808-5.531c-0.362-0.417-0.994-0.46-1.411-0.099l-3.019,2.624c-2.648,2.302-1.411,5.707-1.004,6.826c0.018,0.05,0.04,0.098,0.066,0.145c0.105,0.188,2.612,4.662,6.661,8.786c4.065,4.141,11.404,7.965,11.629,8.076c0.838,0.544,1.781,0.805,2.714,0.805c1.638,0,3.244-0.803,4.202-2.275l2.178-3.354C40.066,31.413,39.934,30.794,39.471,30.493zM35.91,34.142c-0.901,1.388-2.763,1.782-4.233,0.834c-0.073-0.038-7.364-3.835-11.207-7.75c-3.592-3.659-5.977-7.724-6.302-8.291c-0.792-2.221-0.652-3.586,0.464-4.556l2.265-1.968l4.152,4.776c0.369,0.424,0.326,1.044-0.096,1.411l-1.227,1.066c-0.299,0.26-0.417,0.671-0.3,1.049c2.092,6.798,6.16,8.133,9.13,9.108l0.433,0.143c0.433,0.146,0.907-0.021,1.155-0.403l0.709-1.092c0.146-0.226,0.37-0.379,0.63-0.434c0.261-0.056,0.527-0.004,0.753,0.143l5.308,3.447L35.91,34.142z" />
		<path d="M28.538,16.247c-0.532-0.153-1.085,0.156-1.236,0.688c-0.151,0.531,0.157,1.084,0.688,1.235c1.49,0.424,2.677,1.613,3.097,3.104c0.124,0.44,0.525,0.729,0.962,0.729c0.09,0,0.181-0.012,0.272-0.037c0.531-0.15,0.841-0.702,0.691-1.234C32.405,18.578,30.69,16.859,28.538,16.247z"/>
		<path d="M36.148,22.219c0.09,0,0.181-0.012,0.272-0.037c0.532-0.15,0.841-0.703,0.691-1.234c-1.18-4.183-4.509-7.519-8.689-8.709c-0.531-0.153-1.084,0.158-1.235,0.689c-0.151,0.531,0.157,1.084,0.688,1.235c3.517,1,6.318,3.809,7.311,7.328C35.311,21.931,35.711,22.219,36.148,22.219z"/>
		<path d="M27.991,7.582c-0.532-0.153-1.085,0.156-1.236,0.689c-0.151,0.531,0.157,1.084,0.688,1.235c5.959,1.695,10.706,6.453,12.388,12.416c0.124,0.44,0.525,0.729,0.962,0.729c0.09,0,0.181-0.012,0.272-0.037c0.531-0.15,0.841-0.703,0.691-1.234C39.887,14.753,34.613,9.467,27.991,7.582z"/>
	</symbol>
	<symbol id="lineTop" viewBox="0 0 795 11">
		<line x1="0.941406" y1="5.28784" x2="794.05" y2="5.28784" />
	</symbol>
	<symbol id="lineBottom" viewBox="0 0 795 11">
		<path d="M0.949219 5.85059L795.307 5.85059" />
	</symbol>
	<symbol id="lineCurve" viewBox="0 0 115 321">
		<path d="M9.99565 315.851C80.3255 288.149 196.776 130.649 3.0498 4.71887" stroke-linejoin="round"/>
	</symbol>
	<symbol id="lineHorizontalSmall" viewBox="0 0 44 16">
		<path d="M43.573 7.71875L32.5555 14.2139V1.22356L43.573 7.71875Z" />
		<line x1="0.387939" y1="7.91602" x2="36.2279" y2="7.91602" stroke-width="6"/>
	</symbol>
	<symbol id="lineHorizontal" viewBox="0 0 192 16">
		<path d="M159.55 7.71875L148.545 14.2139V1.22356L159.55 7.71875Z" />
		<line x1="0.481689" y1="7.91602" x2="152.213" y2="7.91602" stroke-width="6"/>
	</symbol>
	<symbol id="lineHorizontalRevers" viewBox="0 0 192 16">
		<path d="M0.481689 7.85107L11.6428 1.35588L11.6428 14.3463L0.481689 7.85107Z" fill="#023950"/>
		<line x1="161.807" y1="7.65381" x2="7.92271" y2="7.65381" stroke-width="6"/>
	</symbol>
	<symbol id="lineVertical" viewBox="0 0 26 227">
		<path d="M13.0496 226.351L2.22424 208.389H23.8749L13.0496 226.351Z" />
		<line x1="13.6597" y1="0.218989" x2="13.66" y2="209.365" stroke-width="10"/>
	</symbol>
</svg>