<?xml version="1.0" standalone="no"?>
<!DOCTYPE svg PUBLIC "-//W3C//DTD SVG 20010904//EN"
 "http://www.w3.org/TR/2001/REC-SVG-20010904/DTD/svg10.dtd">
<svg version="1.0" xmlns="http://www.w3.org/2000/svg"
 width="700.000000pt" height="700.000000pt" viewBox="0 0 700.000000 700.000000"
 preserveAspectRatio="xMidYMid meet">
<metadata>
Created by potrace 1.11, written by Peter Selinger 2001-2013
</metadata>
<g transform="translate(0.000000,700.000000) scale(0.100000,-0.100000)"
fill="#000000" stroke="none">
<path d="M1055 6985 c-571 -78 -924 -417 -1020 -980 -18 -107 -26 -370 -14
-465 4 -30 10 -80 13 -110 25 -219 126 -592 235 -865 121 -301 298 -650 478
-939 48 -77 71 -125 68 -137 -3 -9 -18 -35 -32 -56 -106 -156 -346 -604 -440
-823 -105 -242 -218 -565 -238 -682 -3 -17 -8 -34 -10 -38 -4 -7 -6 -14 -34
-155 -33 -173 -45 -289 -45 -460 0 -120 11 -282 20 -297 3 -4 6 -20 8 -35 19
-144 114 -366 212 -494 235 -308 584 -453 1069 -444 204 4 229 7 415 41 47 9
93 18 102 19 113 22 474 135 516 162 33 21 52 69 41 107 -11 39 -56 76 -91 76
-15 0 -89 -21 -165 -46 -120 -39 -338 -100 -398 -110 -11 -1 -49 -8 -85 -14
-94 -17 -105 -19 -215 -27 -153 -11 -370 -5 -417 12 -7 2 -24 6 -38 9 -224 38
-441 167 -566 336 -110 147 -164 291 -194 515 -9 64 -5 386 5 445 9 59 17 104
21 130 42 246 138 551 273 863 11 26 21 51 22 55 14 50 257 506 352 660 l46
74 48 -68 c116 -164 434 -578 473 -614 3 -3 30 -34 60 -70 127 -152 321 -359
530 -568 847 -846 1820 -1495 2704 -1804 174 -60 417 -127 531 -144 17 -3 55
-9 85 -14 182 -31 488 -34 655 -6 260 44 470 148 636 315 165 166 257 343 309
595 25 122 28 532 5 682 -83 544 -326 1147 -713 1773 l-71 114 18 26 c23 32
149 240 192 318 274 488 464 966 545 1368 1 6 7 35 13 65 6 30 14 71 17 90 4
19 8 166 10 325 3 306 2 319 -51 510 -26 95 -118 275 -183 356 -160 202 -358
326 -630 395 -122 31 -156 35 -362 38 -234 5 -405 -16 -665 -80 -246 -61 -564
-176 -793 -285 -202 -96 -237 -114 -372 -187 -775 -423 -1609 -1100 -2271
-1843 -13 -15 -40 -44 -59 -66 -19 -21 -60 -68 -90 -103 -30 -36 -57 -67 -60
-70 -3 -3 -50 -61 -105 -130 -55 -69 -102 -127 -105 -130 -8 -7 -227 -305
-268 -365 l-33 -48 -36 59 c-351 582 -589 1161 -659 1608 -3 21 -8 48 -10 60
-20 100 -26 402 -11 526 26 218 126 437 260 570 156 156 323 230 622 275 51 8
315 9 352 1 15 -3 53 -8 83 -11 30 -3 66 -7 80 -10 14 -3 52 -10 85 -16 217
-38 502 -129 789 -251 128 -55 296 -134 296 -141 0 -2 -8 -3 -17 -4 -10 -1
-79 -13 -153 -27 -75 -14 -151 -28 -170 -31 -76 -13 -112 -66 -91 -136 9 -30
21 -44 47 -57 37 -17 46 -16 259 23 17 3 107 19 200 36 214 37 265 48 291 61
29 14 52 58 49 93 -5 51 -253 638 -278 657 -22 17 -32 21 -62 21 -36 0 -45 -4
-72 -29 -44 -41 -38 -83 39 -264 36 -85 64 -156 63 -158 -1 -1 -58 24 -126 57
-414 198 -842 335 -1169 377 -30 4 -66 9 -80 11 -61 11 -392 9 -475 -2z m4845
-199 c246 -24 455 -109 602 -245 168 -155 262 -358 295 -636 15 -126 6 -383
-17 -507 -6 -29 -12 -70 -15 -91 -7 -54 -61 -265 -95 -374 -107 -334 -278
-713 -476 -1049 -129 -220 -113 -204 -151 -147 -64 96 -222 308 -346 463 -235
295 -491 576 -802 880 -236 231 -259 249 -313 250 -37 0 -91 -44 -93 -77 -4
-57 7 -70 320 -382 174 -174 334 -336 355 -361 21 -25 66 -76 99 -114 221
-246 687 -855 687 -897 0 -5 -14 -28 -30 -51 -17 -24 -38 -54 -47 -68 -121
-181 -517 -686 -613 -780 -8 -8 -53 -58 -99 -110 -47 -52 -188 -199 -315 -325
-263 -263 -334 -328 -546 -510 -58 -50 -123 -103 -144 -120 -21 -16 -45 -36
-52 -43 -19 -18 -18 -2 2 85 9 37 17 75 19 83 2 8 11 52 20 96 20 92 16 125
-22 160 -44 41 -124 28 -152 -25 -6 -10 -28 -101 -50 -202 -113 -512 -110
-494 -67 -538 l26 -26 362 -3 c249 -2 370 1 389 8 68 29 76 133 13 175 -29 19
-45 21 -222 20 l-192 0 28 25 c15 14 52 45 82 70 30 25 57 47 60 50 3 3 34 30
70 60 36 30 70 60 76 65 29 27 191 173 218 198 188 174 562 563 711 742 28 33
57 67 66 75 8 8 78 94 155 190 127 160 193 249 333 443 l48 68 60 -98 c226
-369 417 -781 537 -1158 30 -94 91 -348 101 -420 31 -216 39 -435 21 -555 -24
-160 -56 -270 -108 -375 -195 -388 -630 -559 -1223 -480 -76 10 -106 16 -196
34 -434 90 -944 303 -1459 611 -466 278 -986 677 -1434 1100 -180 170 -519
523 -648 675 -14 17 -45 53 -69 80 -145 166 -346 427 -542 707 l-47 66 47 69
c175 259 494 665 689 878 276 300 483 509 716 720 698 634 1489 1144 2178
1405 196 74 437 148 557 170 32 5 69 12 83 15 47 10 75 14 170 24 154 18 259
19 390 7z"/>
<path d="M3890 5873 c-80 -29 -89 -139 -16 -186 14 -10 94 -72 178 -139 84
-67 168 -130 186 -139 93 -48 187 72 119 152 -12 14 -80 72 -152 128 -71 57
-138 109 -148 117 -86 69 -122 84 -167 67z"/>
<path d="M3478 4825 c-2 -2 -46 -6 -99 -9 -53 -4 -105 -8 -115 -10 -11 -2 -41
-7 -69 -11 -27 -5 -52 -9 -55 -10 -3 0 -30 -7 -60 -14 -456 -108 -932 -387
-1377 -805 -76 -71 -89 -126 -43 -176 53 -56 102 -50 180 23 254 238 515 426
775 561 155 81 382 170 485 190 14 3 43 10 65 15 22 5 59 12 83 15 23 3 61 9
85 12 135 20 378 8 522 -26 28 -6 60 -14 73 -16 84 -16 288 -92 422 -157 136
-66 398 -226 477 -291 10 -8 53 -42 96 -75 76 -58 156 -126 252 -216 73 -67
100 -80 146 -66 60 18 90 86 63 142 -7 14 -40 50 -74 80 -34 30 -76 68 -94 84
-224 209 -580 443 -881 577 -131 58 -387 137 -500 153 -23 3 -52 8 -65 10 -14
3 -77 8 -140 11 -63 3 -123 7 -132 8 -9 2 -18 3 -20 1z"/>
<path d="M3265 4391 c-493 -88 -965 -364 -1422 -832 -193 -198 -221 -244 -189
-311 37 -75 324 -363 519 -520 381 -307 794 -497 1177 -543 60 -7 270 -7 310
0 14 2 43 6 65 9 376 44 847 279 1226 612 79 70 349 341 393 396 79 98 62 132
-194 389 -263 263 -494 439 -770 587 -177 94 -428 183 -580 206 -19 3 -46 8
-60 12 -14 3 -104 8 -200 9 -136 3 -198 0 -275 -14z m354 -196 c185 -24 385
-128 519 -270 86 -90 124 -144 173 -249 141 -301 104 -656 -95 -926 -122 -165
-335 -302 -538 -346 -75 -17 -250 -22 -325 -11 -124 19 -279 79 -380 148 -208
142 -360 387 -389 629 -12 103 -43 142 -109 142 -66 0 -110 -57 -100 -130 12
-95 18 -123 37 -192 11 -41 40 -117 63 -167 33 -71 39 -91 25 -83 -24 13 -243
183 -294 228 -120 108 -303 290 -319 318 -6 10 29 51 125 148 173 173 288 272
441 381 l69 48 -32 -63 c-38 -74 -61 -135 -65 -170 -6 -41 23 -87 63 -103 32
-13 41 -13 72 -1 39 17 42 21 87 123 54 123 94 182 193 282 153 154 332 244
530 266 30 3 56 6 57 7 5 4 144 -2 192 -9z m916 -353 c182 -125 313 -236 493
-419 l122 -124 -17 -24 c-20 -26 -245 -250 -305 -303 -104 -90 -327 -255 -395
-290 -19 -10 -16 -3 16 50 163 271 197 621 91 931 -23 66 -82 188 -113 231
l-20 28 24 -12 c13 -7 60 -38 104 -68z"/>
<path d="M3340 3851 c-200 -54 -355 -211 -414 -417 -16 -59 -19 -202 -4 -266
5 -24 28 -81 50 -128 125 -259 434 -385 703 -289 116 42 219 121 284 219 101
149 127 320 77 494 -32 111 -109 148 -186 91 -44 -33 -90 -32 -129 1 -37 31
-41 75 -12 132 40 78 7 142 -85 166 -75 20 -208 18 -284 -3z m140 -210 c2
-129 64 -232 174 -288 38 -20 66 -26 123 -27 40 0 74 -3 74 -6 7 -24 3 -74 -8
-118 -27 -104 -103 -197 -201 -242 -59 -28 -83 -33 -157 -33 -163 -1 -313 112
-356 268 -56 203 69 412 276 460 70 16 75 15 75 -14z"/>
<path d="M2826 655 c-145 -75 -224 -121 -232 -137 -41 -73 21 -164 104 -152
25 4 290 135 394 196 57 32 69 44 79 77 20 69 -28 132 -99 130 -15 0 -126 -52
-246 -114z"/>
</g>
</svg>
